<svg width="218" height="112" viewBox="0 0 218 112" fill="none" xmlns="http://www.w3.org/2000/svg">
<path d="M0.96 12V3.6H2.88L5.112 11.364H5.268L7.5 3.6H9.42V12H8.448V4.26H8.28L6.06 12H4.32L2.1 4.26H1.932V12H0.96Z" fill="#4D6080"/>
<path opacity="0.7" d="M19 8.00508C19 5.882 19.8262 3.84586 21.2967 2.34462C22.7673 0.843374 24.7617 0 26.8414 0H210.438C212.468 0.0738612 214.391 0.948999 215.801 2.44122C217.212 3.93344 218 5.92629 218 8C218 10.0737 217.212 12.0664 215.801 13.5587C214.391 15.0509 212.468 15.9261 210.438 16H26.8414C25.8121 16.0013 24.7927 15.7955 23.8414 15.3943C22.8901 14.9932 22.0256 14.4045 21.2973 13.6619C20.569 12.9194 19.9913 12.0376 19.5971 11.067C19.2029 10.0963 19 9.05584 19 8.00508Z" fill="#E8F5FF"/>
<path opacity="0.9" d="M56.1519 8.00508C56.1506 6.95432 56.3485 5.91362 56.7343 4.94246C57.1201 3.9713 57.6863 3.08871 58.4004 2.34524C59.1144 1.60176 59.9624 1.01192 60.8959 0.609499C61.8294 0.207081 62.83 -8.48251e-07 63.8405 0H84.7277C86.7207 0.0738612 88.6083 0.949 89.9932 2.44122C91.378 3.93344 92.1519 5.92629 92.1519 8C92.1519 10.0737 91.378 12.0664 89.9932 13.5587C88.6083 15.0509 86.7207 15.9261 84.7277 16H63.8405C61.8013 16 59.8457 15.1577 58.4038 13.6584C56.9619 12.159 56.1519 10.1255 56.1519 8.00508Z" fill="#2A9DFC"/>
<path d="M4.024 84V76.512H1.324V75.6H7.732V76.512H5.032V84H4.024Z" fill="#4D6080"/>
<path opacity="0.7" d="M19 80.0051C19 77.882 19.8262 75.8459 21.2967 74.3446C22.7673 72.8434 24.7617 72 26.8414 72H210.438C212.468 72.0739 214.391 72.949 215.801 74.4412C217.212 75.9334 218 77.9263 218 80C218 82.0737 217.212 84.0664 215.801 85.5587C214.391 87.0509 212.468 87.9261 210.438 88H26.8414C25.8121 88.0013 24.7927 87.7955 23.8414 87.3943C22.8901 86.9932 22.0256 86.4045 21.2973 85.6619C20.569 84.9194 19.9913 84.0376 19.5971 83.067C19.2029 82.0963 19 81.0558 19 80.0051Z" fill="#E8F5FF"/>
<path d="M1.812 60L0.444 51.6H1.452L2.64 59.352H2.808L4.356 51.6H6.156L7.692 59.352H7.86L9.048 51.6H10.056L8.688 60H6.888L5.34 52.2H5.172L3.624 60H1.812Z" fill="#4D6080"/>
<path opacity="0.7" d="M19 56.0075C19 54.9565 19.2028 53.9158 19.5969 52.9449C19.991 51.974 20.5686 51.0919 21.2967 50.3488C22.0249 49.6057 22.8893 49.0162 23.8406 48.6141C24.792 48.2119 25.8117 48.0049 26.8414 48.0049H210.438C212.468 48.0787 214.391 48.9536 215.801 50.4453C217.212 51.9371 218 53.9293 218 56.0024C218 58.0754 217.212 60.0675 215.801 61.5593C214.391 63.051 212.468 63.926 210.438 63.9999H26.8414C25.8121 64.0012 24.7927 63.7955 23.8414 63.3944C22.8901 62.9933 22.0256 62.4049 21.2973 61.6626C20.569 60.9203 19.9913 60.0387 19.5971 59.0684C19.2029 58.098 19 57.0579 19 56.0075Z" fill="#E8F5FF"/>
<path opacity="0.9" d="M141.702 56.0026C141.701 54.9528 141.911 53.9131 142.321 52.9429C142.731 51.9726 143.332 51.0909 144.091 50.3481C144.85 49.6053 145.751 49.016 146.743 48.614C147.735 48.212 148.798 48.0051 149.872 48.0051H173.23C174.328 47.9668 175.423 48.1452 176.449 48.5296C177.475 48.9141 178.411 49.4966 179.202 50.2425C179.993 50.9885 180.622 51.8825 181.051 52.8712C181.481 53.86 181.702 54.9233 181.702 55.9975C181.702 57.0717 181.481 58.1349 181.051 59.1236C180.622 60.1124 179.993 61.0064 179.202 61.7523C178.411 62.4983 177.475 63.0809 176.449 63.4654C175.423 63.8498 174.328 64.0282 173.23 63.9899H149.872C147.705 63.9899 145.627 63.1484 144.095 61.6505C142.563 60.1526 141.702 58.121 141.702 56.0026Z" fill="#2A9DFC"/>
<path opacity="0.9" d="M56.1519 56.0075C56.1505 54.957 56.3536 53.9167 56.7495 52.9458C57.1453 51.9749 57.7262 51.0926 58.4588 50.3494C59.1915 49.6061 60.0615 49.0165 61.0193 48.6142C61.977 48.2119 63.0036 48.0049 64.0404 48.0049H112.535C114.579 48.0787 116.516 48.9536 117.937 50.4453C119.358 51.9371 120.152 53.9293 120.152 56.0024C120.152 58.0754 119.358 60.0675 117.937 61.5593C116.516 63.0511 114.579 63.926 112.535 63.9999H64.0404C61.9483 63.9999 59.9418 63.1578 58.4624 61.659C56.983 60.1601 56.1519 58.1272 56.1519 56.0075Z" fill="#FA8A8C"/>
<path d="M4.024 36V28.512H1.324V27.6H7.732V28.512H5.032V36H4.024Z" fill="#4D6080"/>
<path opacity="0.7" d="M19 32.0051C19 29.882 19.8262 27.8459 21.2967 26.3446C22.7673 24.8434 24.7617 24 26.8414 24H210.438C212.468 24.0739 214.391 24.949 215.801 26.4412C217.212 27.9334 218 29.9263 218 32C218 34.0737 217.212 36.0664 215.801 37.5587C214.391 39.0509 212.468 39.9261 210.438 40H26.8414C25.8121 40.0013 24.7927 39.7955 23.8414 39.3943C22.8901 38.9932 22.0256 38.4045 21.2973 37.6619C20.569 36.9194 19.9913 36.0376 19.5971 35.067C19.2029 34.0963 19 33.0558 19 32.0051Z" fill="#E8F5FF"/>
<path opacity="0.9" d="M76.4136 32.0051C76.4122 30.9543 76.6185 29.9136 77.0207 28.9425C77.4228 27.9713 78.0129 27.0887 78.7571 26.3452C79.5014 25.6018 80.3852 25.0119 81.3582 24.6095C82.3311 24.2071 83.374 24 84.4272 24H188.676C190.753 24.0739 192.72 24.949 194.164 26.4412C195.607 27.9334 196.414 29.9263 196.414 32C196.414 34.0737 195.607 36.0664 194.164 37.5587C192.72 39.0509 190.753 39.9261 188.676 40H84.4272C82.3019 40 80.2636 39.1577 78.7607 37.6584C77.2579 36.159 76.4136 34.1255 76.4136 32.0051Z" fill="#FA8A8C"/>
<path d="M1.96 108V99.6H7.036V100.512H2.968V103.332H6.712V104.244H2.968V108H1.96Z" fill="#4D6080"/>
<path opacity="0.7" d="M19 104.005C19 101.882 19.8262 99.8459 21.2967 98.3446C22.7673 96.8434 24.7617 96 26.8414 96H210.438C212.468 96.0739 214.391 96.949 215.801 98.4412C217.212 99.9334 218 101.926 218 104C218 106.074 217.212 108.066 215.801 109.559C214.391 111.051 212.468 111.926 210.438 112H26.8414C25.8121 112.001 24.7927 111.796 23.8414 111.394C22.8901 110.993 22.0256 110.404 21.2973 109.662C20.569 108.919 19.9913 108.038 19.5971 107.067C19.2029 106.096 19 105.056 19 104.005Z" fill="#E8F5FF"/>
<path d="M79.7856 104.005C79.7856 101.882 80.646 99.8459 82.1774 98.3446C83.7088 96.8434 85.7858 96 87.9515 96H143.911C146.025 96.0739 148.027 96.949 149.496 98.4412C150.965 99.9334 151.786 101.926 151.786 104C151.786 106.074 150.965 108.066 149.496 109.559C148.027 111.051 146.025 111.926 143.911 112H87.9515C86.8797 112.001 85.818 111.796 84.8274 111.394C83.8367 110.993 82.9364 110.404 82.178 109.662C81.4196 108.919 80.818 108.038 80.4075 107.067C79.9969 106.096 79.7856 105.056 79.7856 104.005Z" fill="#2A9DFC"/>
</svg>
