<svg width="72" height="72" viewBox="0 0 72 72" fill="none" xmlns="http://www.w3.org/2000/svg">
<path d="M36.4005 69.0565C54.9019 69.0565 69.9002 54.0843 69.9002 35.6152C69.9002 17.146 54.9019 2.17383 36.4005 2.17383C17.8992 2.17383 2.90088 17.146 2.90088 35.6152C2.90088 54.0843 17.8992 69.0565 36.4005 69.0565Z" fill="#E7F1FE"/>
<path d="M62.3757 57.0305H25.1439C24.4348 57.0239 23.7497 56.7741 23.2032 56.3231C22.6567 55.8721 22.2821 55.2473 22.1421 54.5534L15.8484 23.6891C15.7583 23.244 15.768 22.7846 15.8769 22.3437C15.9857 21.9028 16.191 21.4914 16.4779 21.1391C16.7649 20.7867 17.1264 20.5022 17.5365 20.3058C17.9467 20.1095 18.3953 20.0062 18.8502 20.0034H56.082C56.792 20.0124 57.4773 20.2643 58.0236 20.7169C58.5699 21.1696 58.9441 21.7956 59.0838 22.4905L65.3375 53.3149C65.4339 53.759 65.4302 54.219 65.3267 54.6616C65.2232 55.1041 65.0225 55.5181 64.739 55.8737C64.4556 56.2293 64.0965 56.5176 63.6878 56.7177C63.2791 56.9178 62.8309 57.0246 62.3757 57.0305Z" fill="#E7F1FE"/>
<path d="M64.5271 53.4946C64.5994 53.8157 64.5981 54.1489 64.5235 54.4695C64.4488 54.79 64.3026 55.0897 64.0958 55.346C63.8891 55.6023 63.627 55.8088 63.3292 55.95C63.0314 56.0912 62.7055 56.1635 62.3758 56.1615V57.9094C62.9669 57.9114 63.5507 57.7806 64.0843 57.5268C64.6179 57.2731 65.0874 56.9028 65.4583 56.4434C65.8291 55.984 66.0918 55.4473 66.2267 54.8729C66.3617 54.2985 66.3656 53.7012 66.2381 53.1251L64.5271 53.4946ZM58.2735 22.6203L64.5271 53.4446L66.2481 53.0951L59.9944 22.2707L58.2735 22.6203ZM56.0922 20.8423C56.6075 20.8399 57.1074 21.0173 57.5057 21.3437C57.9039 21.6701 58.1755 22.1253 58.2735 22.6303L59.9944 22.2607C59.8046 21.3672 59.3137 20.5655 58.6037 19.9893C57.8936 19.4132 57.0072 19.0973 56.0922 19.0944V20.8423ZM18.8603 20.8423H56.0922V19.0944H18.8603V20.8423ZM16.679 23.4893C16.6116 23.1673 16.6174 22.8343 16.6961 22.5148C16.7749 22.1954 16.9244 21.8977 17.1338 21.6437C17.3431 21.3896 17.607 21.1857 17.9058 21.0471C18.2046 20.9084 18.5308 20.8384 18.8603 20.8423V19.0944C18.273 19.0899 17.6921 19.2165 17.1601 19.4649C16.6281 19.7133 16.1584 20.0771 15.7854 20.5299C15.4123 20.9828 15.1453 21.5131 15.0039 22.0821C14.8625 22.6511 14.8502 23.2445 14.968 23.8189L16.679 23.4893ZM22.9627 54.3336L16.679 23.4793L14.968 23.8289L21.2517 54.6832L22.9627 54.3336ZM25.144 56.1216C24.6283 56.1197 24.1292 55.9395 23.7315 55.6117C23.3338 55.2839 23.0622 54.8288 22.9627 54.3236L21.2517 54.6932C21.4392 55.5869 21.9277 56.3896 22.6359 56.9675C23.3441 57.5455 24.2293 57.8639 25.144 57.8696V56.1216ZM62.3758 56.1216H25.144V57.8696H62.3758V56.1216ZM65.3776 53.2748L64.5171 53.4446L65.3776 53.2748ZM59.1239 22.4505L59.9844 22.2707L59.1239 22.4505ZM15.8085 23.6491L14.958 23.8189L15.8085 23.6491ZM22.1022 54.5135L21.2417 54.6832L22.1022 54.5135Z" fill="#4D6080"/>
<path d="M55.0215 57.0304H17.6495C17.2332 57.0292 16.8213 56.9448 16.4382 56.7819C16.0552 56.619 15.7088 56.381 15.4195 56.082C15.1303 55.783 14.9041 55.429 14.7544 55.0412C14.6046 54.6534 14.5344 54.2395 14.5478 53.8241L15.6484 22.9998C15.6719 22.1934 16.0107 21.4283 16.5923 20.8682C17.174 20.3081 17.9521 19.9977 18.7602 20.0032H56.1321C56.5489 20.003 56.9614 20.0866 57.3451 20.2491C57.7288 20.4115 58.0758 20.6494 58.3653 20.9487C58.6548 21.248 58.8809 21.6024 59.0302 21.9908C59.1794 22.3793 59.2487 22.7937 59.2339 23.2095L58.1333 54.0238C58.0952 54.8261 57.7521 55.5839 57.1739 56.1425C56.5958 56.7011 55.826 57.0186 55.0215 57.0304Z" fill="#E7F1FE"/>
<path d="M57.2628 54.014C57.2277 54.5875 56.9777 55.1269 56.5624 55.5248C56.1471 55.9227 55.597 56.1499 55.0215 56.1614V57.9094C56.0476 57.9108 57.035 57.5188 57.7798 56.8143C58.5246 56.1098 58.97 55.1467 59.0239 54.1238L57.2628 54.014ZM58.3634 23.2095L57.2628 54.0339L59.0038 54.1038L60.1145 23.2795L58.3634 23.2095ZM56.1322 20.9123C56.4321 20.9148 56.7285 20.977 57.004 21.0955C57.2795 21.214 57.5284 21.3862 57.7363 21.6021C57.9442 21.818 58.1067 22.0731 58.2144 22.3526C58.3221 22.6321 58.3728 22.9302 58.3634 23.2295H60.1145C60.1278 22.6965 60.0342 22.1662 59.839 21.6699C59.6439 21.1736 59.3512 20.7212 58.9782 20.3395C58.6052 19.9579 58.1595 19.6546 57.6672 19.4476C57.175 19.2406 56.6462 19.1341 56.1121 19.1343L56.1322 20.9123ZM18.7602 20.9123H56.1322V19.1643H18.7903L18.7602 20.9123ZM16.5289 23.0398C16.5498 22.4648 16.7947 21.9206 17.2114 21.5232C17.6282 21.1258 18.1839 20.9067 18.7602 20.9123V19.1643C17.7309 19.1631 16.7407 19.5579 15.9953 20.2666C15.25 20.9753 14.8068 21.9434 14.7579 22.9698L16.5289 23.0398ZM15.4183 53.8541L16.5289 23.0298L14.7779 22.9698L13.6673 53.7941L15.4183 53.8541ZM17.6496 56.1614C17.3496 56.1589 17.0532 56.0966 16.7778 55.9781C16.5023 55.8597 16.2533 55.6874 16.0454 55.4715C15.8376 55.2556 15.675 55.0005 15.5673 54.7211C15.4596 54.4416 15.409 54.1434 15.4183 53.8441H13.6673C13.6539 54.3772 13.7476 54.9074 13.9427 55.4037C14.1379 55.9001 14.4306 56.3525 14.8036 56.7341C15.1765 57.1158 15.6223 57.419 16.1145 57.626C16.6067 57.833 17.1355 57.9395 17.6696 57.9394L17.6496 56.1614ZM55.0215 56.1614H17.6496V57.9094H55.0215V56.1614ZM58.1333 54.0639L59.0038 54.1238L58.1333 54.0639ZM59.234 23.2495H60.1145H59.234ZM15.6484 22.9998H14.7779H15.6484ZM14.5478 53.8241H13.6673H14.5478Z" fill="#4D6080"/>
<path d="M52.42 19.554C52.42 20.4468 52.0647 21.3029 51.4323 21.9342C50.8 22.5655 49.9423 22.9201 49.048 22.9201V24.6681C50.4067 24.6681 51.7098 24.1293 52.6706 23.1702C53.6313 22.2111 54.171 20.9104 54.171 19.554H52.42ZM49.048 16.1879C49.9423 16.1879 50.8 16.5425 51.4323 17.1737C52.0647 17.805 52.42 18.6613 52.42 19.554H54.171C54.171 18.1977 53.6313 16.8968 52.6706 15.9377C51.7098 14.9786 50.4067 14.4399 49.048 14.4399V16.1879ZM49.048 22.9201C48.8319 22.9432 48.6321 23.0452 48.4868 23.2065C48.3416 23.3679 48.2612 23.5772 48.2612 23.7941C48.2612 24.011 48.3416 24.2202 48.4868 24.3816C48.6321 24.5429 48.8319 24.645 49.048 24.6681V22.9201ZM49.048 14.4399C48.8319 14.463 48.6321 14.565 48.4868 14.7264C48.3416 14.8877 48.2612 15.097 48.2612 15.3139C48.2612 15.5309 48.3416 15.74 48.4868 15.9014C48.6321 16.0627 48.8319 16.1648 49.048 16.1879V14.4399Z" fill="#4D6080"/>
<path d="M29.0362 19.554C29.0375 19.9964 28.9512 20.4347 28.7822 20.8437C28.6132 21.2527 28.3649 21.6243 28.0515 21.9371C27.7381 22.25 27.3659 22.4978 26.9562 22.6665C26.5465 22.8352 26.1074 22.9214 25.6642 22.9201V24.6681C27.0229 24.6681 28.326 24.1293 29.2867 23.1702C30.2475 22.2111 30.7872 20.9104 30.7872 19.554H29.0362ZM25.6642 16.1879C26.5585 16.1879 27.4162 16.5425 28.0486 17.1737C28.681 17.805 29.0362 18.6613 29.0362 19.554H30.7972C30.7972 18.1977 30.2575 16.8968 29.2968 15.9377C28.336 14.9786 27.0329 14.4399 25.6742 14.4399L25.6642 16.1879ZM25.6642 22.9201C25.4482 22.9432 25.2483 23.0452 25.103 23.2065C24.9578 23.3679 24.8774 23.5772 24.8774 23.7941C24.8774 24.011 24.9578 24.2202 25.103 24.3816C25.2483 24.5429 25.4482 24.645 25.6642 24.6681V22.9201ZM25.6642 14.4399C25.4482 14.463 25.2483 14.565 25.103 14.7264C24.9578 14.8877 24.8774 15.097 24.8774 15.3139C24.8774 15.5309 24.9578 15.74 25.103 15.9014C25.2483 16.0627 25.4482 16.1648 25.6642 16.1879V14.4399Z" fill="#4D6080"/>
<path d="M47.6371 57.0304H9.61477C9.13676 57.0373 8.66375 56.9328 8.23334 56.7251C7.80294 56.5174 7.42704 56.2122 7.13556 55.8339C6.84408 55.4557 6.64506 55.0148 6.55435 54.5462C6.46364 54.0777 6.48371 53.5945 6.61301 53.135L15.078 22.3106C15.2601 21.6564 15.6526 21.0801 16.195 20.6704C16.7373 20.2607 17.3996 20.0404 18.0798 20.0433H56.102C56.58 20.0364 57.0531 20.1409 57.4835 20.3486C57.9139 20.5563 58.2898 20.8615 58.5812 21.2398C58.8727 21.618 59.0717 22.0589 59.1625 22.5275C59.2532 22.996 59.2331 23.4792 59.1038 23.9387L50.6388 54.7532C50.4745 55.418 50.087 56.0065 49.5408 56.4209C48.9946 56.8353 48.3228 57.0504 47.6371 57.0304Z" fill="white"/>
<path d="M49.8083 54.5832C49.6858 55.0502 49.4105 55.4631 49.0263 55.7562C48.642 56.0493 48.1707 56.206 47.6871 56.2013V57.9493C48.5591 57.9525 49.4074 57.6656 50.0977 57.1337C50.7881 56.6019 51.2813 55.8557 51.4993 55.0128L49.8083 54.5832ZM58.2733 23.7389L49.8083 54.5232L51.4993 54.9928L59.9543 24.1685L58.2733 23.7389ZM56.1421 20.9521C56.4824 20.9504 56.8185 21.0276 57.1239 21.1775C57.4293 21.3274 57.6958 21.546 57.9023 21.8161C58.1088 22.0861 58.2499 22.4003 58.3142 22.734C58.3786 23.0676 58.3646 23.4116 58.2733 23.7389L59.9543 24.2083C60.1058 23.623 60.1222 23.0111 60.0024 22.4185C59.8825 21.826 59.6296 21.2683 59.2626 20.7875C58.8956 20.3067 58.424 19.9152 57.8835 19.6427C57.343 19.3702 56.7476 19.2236 56.1421 19.2141V20.9521ZM18.1197 20.9521H56.1421V19.2041H18.1197V20.9521ZM15.9885 22.5902C16.1169 22.1229 16.3945 21.7102 16.7791 21.4146C17.1637 21.1189 17.6343 20.9565 18.1197 20.9521V19.2041C17.2537 19.2131 16.414 19.5022 15.7266 20.0281C15.0393 20.554 14.5413 21.2883 14.3075 22.1208L15.9885 22.5902ZM7.53354 53.4045L15.9885 22.5802L14.3075 22.1208L5.78251 52.9051L7.53354 53.4045ZM9.65478 56.2013C9.31511 56.201 8.98009 56.1225 8.67572 55.972C8.37135 55.8215 8.10581 55.603 7.89969 55.3335C7.69357 55.0639 7.55242 54.7507 7.48719 54.4179C7.42195 54.0851 7.43438 53.7417 7.52352 53.4145L5.84255 52.9451C5.69108 53.5304 5.67464 54.1423 5.79445 54.7349C5.91426 55.3275 6.16721 55.8853 6.53424 56.3661C6.90126 56.8469 7.37281 57.2382 7.91334 57.5107C8.45387 57.7833 9.04929 57.9298 9.65478 57.9393V56.2013ZM47.6771 56.2013H9.65478V57.9493H47.6771V56.2013ZM50.6788 54.7929L49.8384 54.5632L50.6788 54.7929ZM59.1438 23.9786L58.3033 23.7389L59.1438 23.9786ZM15.178 22.3505L14.3375 22.1208L15.178 22.3505ZM6.71305 53.1748L7.55354 53.4145L6.71305 53.1748Z" fill="#4D6080"/>
<path d="M48.7377 31.8997H18.2098C17.7245 31.8975 17.2519 32.0546 16.8649 32.3471C16.4779 32.6395 16.1981 33.0509 16.0685 33.5178L11.2257 51.1075C11.1342 51.4356 11.1203 51.7804 11.1852 52.1148C11.2501 52.4492 11.392 52.764 11.5997 53.0343C11.8073 53.3046 12.0751 53.5229 12.3818 53.6721C12.6885 53.8214 13.0257 53.8975 13.3669 53.8943H44.0449C44.5325 53.8881 45.0048 53.724 45.391 53.4268C45.7771 53.1296 46.0562 52.7153 46.1862 52.2462L50.8789 34.6565C50.965 34.3303 50.9746 33.9887 50.9071 33.6582C50.8396 33.3277 50.6968 33.0172 50.4898 32.7506C50.2828 32.4841 50.017 32.2687 49.7132 32.1211C49.4093 31.9736 49.0756 31.8978 48.7377 31.8997Z" fill="#E8F5FF"/>
<path d="M51.7194 34.8861C51.841 34.4287 51.8553 33.9495 51.7611 33.4858C51.6669 33.022 51.4668 32.5861 51.1764 32.2121C50.886 31.8381 50.513 31.536 50.0866 31.3293C49.6601 31.1227 49.1917 31.0171 48.7176 31.0206V32.7686C48.9208 32.7688 49.1214 32.815 49.304 32.9039C49.4867 32.9928 49.6467 33.1221 49.772 33.2818C49.8973 33.4415 49.9846 33.6275 50.0273 33.8258C50.07 34.0242 50.067 34.2296 50.0184 34.4266L51.7194 34.8861ZM47.0266 52.4658L51.7194 34.8861L50.0284 34.4366L45.3357 52.0163L47.0266 52.4658ZM44.0249 54.773C44.706 54.7681 45.367 54.5424 45.9084 54.1299C46.4498 53.7173 46.8423 53.1403 47.0266 52.4858L45.3357 51.9963C45.2578 52.2798 45.0898 52.5304 44.8571 52.7105C44.6244 52.8906 44.3394 52.9905 44.0449 52.9952L44.0249 54.773ZM13.3469 54.773H44.0249V53.0251H13.3669L13.3469 54.773ZM10.3452 50.8776C10.2181 51.337 10.1996 51.8195 10.2911 52.2871C10.3827 52.7548 10.5819 53.1948 10.873 53.5725C11.1641 53.9502 11.539 54.2554 11.9683 54.4637C12.3977 54.672 12.8696 54.7779 13.3469 54.773V53.0251C13.1395 53.027 12.9345 52.9806 12.7482 52.8893C12.562 52.7981 12.3997 52.6648 12.2743 52.4998C12.1489 52.3348 12.0639 52.1429 12.026 51.9393C11.9881 51.7357 11.9984 51.526 12.0562 51.3271L10.3452 50.8776ZM15.178 33.288L10.3452 50.8676L12.0362 51.3371L16.869 33.7474L15.178 33.288ZM18.1798 31.0206C17.5013 31.0188 16.8408 31.2383 16.2989 31.6458C15.757 32.0534 15.3634 32.6265 15.178 33.278L16.869 33.7574C16.9459 33.4715 17.1149 33.2187 17.35 33.0382C17.5851 32.8576 17.8732 32.7594 18.1698 32.7586L18.1798 31.0206ZM48.7077 31.0206H18.2098V32.7686H48.7377L48.7077 31.0206ZM50.8489 34.6564L50.0084 34.4266L50.8489 34.6564ZM46.1561 52.246L46.9967 52.4858L46.1561 52.246ZM11.1957 51.1074L10.3552 50.8676L11.1957 51.1074ZM16.0385 33.5177L15.188 33.278L16.0385 33.5177Z" fill="white"/>
<path d="M17.7896 26.9653L17.2393 29.1728C17.1575 29.4987 17.1508 29.8389 17.22 30.1677C17.2891 30.4966 17.4322 30.8053 17.6385 31.0709C17.8447 31.3364 18.1087 31.5516 18.4105 31.7004C18.7123 31.8491 19.044 31.9275 19.3806 31.9295H50.0886C50.5774 31.9283 51.0522 31.7662 51.4393 31.4682C51.8265 31.1703 52.1043 30.7531 52.2298 30.2815L52.7801 28.074C52.862 27.7481 52.8686 27.4078 52.7995 27.079C52.7303 26.7502 52.5873 26.4414 52.381 26.1759C52.1748 25.9104 51.9108 25.695 51.609 25.5462C51.3072 25.3975 50.9755 25.3192 50.6389 25.3171H19.9309C19.4381 25.3022 18.9554 25.4584 18.5649 25.7589C18.1745 26.0594 17.9005 26.4857 17.7896 26.9653Z" fill="#2A9DFC"/>
<path d="M19.9608 24.438C19.2683 24.4205 18.591 24.6428 18.0439 25.067C17.4968 25.4912 17.1135 26.0912 16.959 26.7653L18.66 27.1749C18.7224 26.8887 18.882 26.6328 19.1118 26.4508C19.3416 26.2687 19.6274 26.1717 19.9208 26.1761L19.9608 24.438ZM50.6388 24.438H19.9308V26.1859H50.6388V24.438ZM53.6405 28.2836C53.7544 27.8278 53.7629 27.3522 53.6653 26.8926C53.5678 26.4331 53.3668 26.0017 53.0776 25.6312C52.7884 25.2606 52.4185 24.9607 51.996 24.754C51.5734 24.5473 51.1093 24.4392 50.6388 24.438V26.1859C50.8427 26.1888 51.0432 26.2378 51.2255 26.3291C51.4077 26.4204 51.5669 26.5516 51.6911 26.713C51.8153 26.8745 51.9012 27.0619 51.9425 27.2612C51.9838 27.4606 51.9794 27.6667 51.9295 27.8641L53.6405 28.2836ZM53.0902 30.491L53.6405 28.2836L51.9395 27.8641L51.3892 30.0615L53.0902 30.491ZM50.0885 32.8083C50.7748 32.8065 51.4412 32.5784 51.9841 32.1593C52.527 31.7401 52.9159 31.1537 53.0902 30.491L51.3892 30.0615C51.3128 30.3458 51.1453 30.5973 50.9122 30.7777C50.6791 30.958 50.3933 31.0573 50.0984 31.0603L50.0885 32.8083ZM19.3804 32.8083H50.0885V31.0603H19.3804V32.8083ZM16.3787 28.9628C16.2628 29.4187 16.2528 29.8951 16.3495 30.3554C16.4462 30.8158 16.6471 31.248 16.9367 31.619C17.2263 31.99 17.597 32.29 18.0206 32.4961C18.4441 32.7023 18.9092 32.809 19.3804 32.8083V31.0603C19.1765 31.0574 18.9759 31.0086 18.7937 30.9173C18.6114 30.826 18.4523 30.6948 18.3281 30.5333C18.2039 30.3719 18.1179 30.1845 18.0767 29.9851C18.0354 29.7858 18.0398 29.5797 18.0897 29.3823L16.3787 28.9628ZM16.929 26.7554L16.3787 28.9628L18.0797 29.3823L18.63 27.1848L16.929 26.7554ZM19.9308 25.317V26.1859V25.317ZM52.78 28.0738L51.9295 27.8641L52.78 28.0738ZM52.2297 30.2813L53.0802 30.491L52.2297 30.2813ZM17.2092 29.1726L18.0597 29.3823L17.2092 29.1726ZM17.7595 26.9651L18.61 27.1848L17.7595 26.9651Z" fill="white"/>
<path d="M22.2923 19.6237C22.2923 18.731 22.6476 17.8748 23.2799 17.2435C23.9123 16.6123 24.77 16.2576 25.6643 16.2576V14.5096C24.3056 14.5096 23.0025 15.0485 22.0417 16.0075C21.081 16.9666 20.5413 18.2674 20.5413 19.6237H22.2923ZM25.6643 22.9898C24.77 22.9898 23.9123 22.6352 23.2799 22.0039C22.6476 21.3726 22.2923 20.5165 22.2923 19.6237H20.5413C20.5413 20.98 21.081 22.2808 22.0417 23.2399C23.0025 24.199 24.3056 24.7378 25.6643 24.7378V22.9898ZM25.6643 16.2576C25.7871 16.2707 25.9113 16.2579 26.0289 16.2199C26.1464 16.182 26.2547 16.1198 26.3465 16.0374C26.4384 15.955 26.5119 15.8541 26.5622 15.7415C26.6125 15.6288 26.6385 15.5069 26.6385 15.3836C26.6385 15.2603 26.6125 15.1384 26.5622 15.0258C26.5119 14.9131 26.4384 14.8123 26.3465 14.7298C26.2547 14.6474 26.1464 14.5852 26.0289 14.5473C25.9113 14.5094 25.7871 14.4965 25.6643 14.5096V16.2576ZM25.6643 24.7378C25.7871 24.7509 25.9113 24.7381 26.0289 24.7001C26.1464 24.6622 26.2547 24.6 26.3465 24.5176C26.4384 24.4352 26.5119 24.3343 26.5622 24.2217C26.6125 24.109 26.6385 23.9871 26.6385 23.8638C26.6385 23.7405 26.6125 23.6186 26.5622 23.5059C26.5119 23.3933 26.4384 23.2924 26.3465 23.21C26.2547 23.1276 26.1464 23.0654 26.0289 23.0275C25.9113 22.9895 25.7871 22.9767 25.6643 22.9898V24.7378Z" fill="#4D6080"/>
<path d="M45.6758 19.6237C45.6758 18.731 46.0311 17.8748 46.6635 17.2435C47.2958 16.6123 48.1535 16.2576 49.0478 16.2576V14.5096C47.6891 14.5096 46.3861 15.0485 45.4253 16.0075C44.4646 16.9666 43.9248 18.2674 43.9248 19.6237H45.6758ZM49.0478 22.9898C48.1535 22.9898 47.2958 22.6352 46.6635 22.0039C46.0311 21.3726 45.6758 20.5165 45.6758 19.6237H43.9248C43.9248 20.98 44.4646 22.2808 45.4253 23.2399C46.3861 24.199 47.6891 24.7378 49.0478 24.7378V22.9898ZM49.0478 16.2576C49.1706 16.2707 49.2949 16.2579 49.4124 16.2199C49.53 16.182 49.6382 16.1198 49.7301 16.0374C49.822 15.955 49.8955 15.8541 49.9458 15.7415C49.9961 15.6288 50.0221 15.5069 50.0221 15.3836C50.0221 15.2603 49.9961 15.1384 49.9458 15.0258C49.8955 14.9131 49.822 14.8123 49.7301 14.7298C49.6382 14.6474 49.53 14.5852 49.4124 14.5473C49.2949 14.5094 49.1706 14.4965 49.0478 14.5096V16.2576ZM49.0478 24.7378C49.1706 24.7509 49.2949 24.7381 49.4124 24.7001C49.53 24.6622 49.6382 24.6 49.7301 24.5176C49.822 24.4352 49.8955 24.3343 49.9458 24.2217C49.9961 24.109 50.0221 23.9871 50.0221 23.8638C50.0221 23.7405 49.9961 23.6186 49.9458 23.5059C49.8955 23.3933 49.822 23.2924 49.7301 23.21C49.6382 23.1276 49.53 23.0654 49.4124 23.0275C49.2949 22.9895 49.1706 22.9767 49.0478 22.9898V24.7378Z" fill="#4D6080"/>
<path d="M29.5765 47.5215L38.5818 38.7616L36.4205 36.5541L27.4152 45.304L29.5765 47.5215ZM23.663 43.7058L27.3952 47.4915L29.6065 45.334L25.8743 41.5383L23.663 43.7058ZM38.5918 38.7616C38.7562 38.6248 38.8905 38.4556 38.9862 38.2645C39.0819 38.0734 39.137 37.8646 39.1479 37.6512C39.1588 37.4378 39.1254 37.2245 39.0497 37.0246C38.974 36.8248 38.8577 36.6427 38.7081 36.4899C38.5585 36.3372 38.3789 36.2169 38.1805 36.1368C37.982 36.0567 37.7692 36.0185 37.5552 36.0245C37.3413 36.0306 37.1309 36.0807 36.9374 36.1718C36.7438 36.263 36.5712 36.3931 36.4305 36.5541L38.5918 38.7616ZM28.4958 46.4127L27.3952 47.4915L28.4758 48.5902L29.5765 47.5215L28.4958 46.4127ZM25.8743 41.5383C25.5822 41.2654 25.1959 41.1157 24.7959 41.1205C24.3959 41.1252 24.0132 41.2841 23.7278 41.5639C23.4423 41.8437 23.2762 42.2227 23.2641 42.6219C23.2521 43.021 23.395 43.4094 23.663 43.7058L25.8743 41.5383Z" fill="#2A9DFC"/>
</svg>
