<svg width="40" height="40" viewBox="0 0 40 40" fill="none" xmlns="http://www.w3.org/2000/svg">
<path d="M27.1256 1H12.8744C6.3206 1 1 6.3206 1 12.8744V27.1256C1 33.6794 6.3206 39 12.8744 39H27.1256C33.6794 39 39 33.6794 39 27.1256V12.8744C39 6.3206 33.6894 1 27.1256 1ZM35.4397 27.1256C35.4397 31.7103 31.7103 35.4397 27.1256 35.4397H12.8744C8.28972 35.4397 4.56033 31.7103 4.56033 27.1256V12.8744C4.56033 8.28971 8.28972 4.56032 12.8744 4.56032H27.1256C31.7103 4.56032 35.4397 8.28971 35.4397 12.8744V27.1256Z" fill="#2A9DFC"/>
<path d="M19.55 10C14.27 10 10 14.28 10 19.55C10 24.82 14.28 29.1 19.55 29.1C24.82 29.1 29.1 24.82 29.1 19.55C29.1 14.28 24.82 10 19.55 10ZM19.55 25.52C16.26 25.52 13.58 22.84 13.58 19.55C13.58 16.26 16.26 13.58 19.55 13.58C22.84 13.58 25.52 16.26 25.52 19.55C25.52 22.84 22.84 25.52 19.55 25.52Z" fill="#2A9DFC"/>
<path d="M29.9499 7.83995C29.9499 8.53995 29.3799 9.10995 28.6799 9.10995C27.9799 9.10995 27.4099 8.53995 27.4099 7.83995C27.4099 7.13995 27.9799 6.56995 28.6799 6.56995C29.3799 6.55995 29.9499 7.12995 29.9499 7.83995Z" fill="#2A9DFC"/>
</svg>
