<svg width="40" height="40" viewBox="0 0 40 40" fill="none" xmlns="http://www.w3.org/2000/svg">
<path d="M37.0441 0C38.6766 0 40 1.28329 40 2.86535V37.1347C40 38.7172 38.6766 40 37.0441 40H2.95593C1.32338 40 0 38.7172 0 37.1347L0 2.86535C0 1.28329 1.32338 0 2.95593 0L37.0441 0ZM12.0881 15.4722H6.06497V33.5934H12.0881V15.4722ZM26.8723 15.047C23.739 15.047 22.3007 16.7358 21.4913 17.9656L21.4438 18.0387L21.4442 15.4722H15.4209C15.4434 15.954 15.4531 17.6175 15.4555 19.7544L15.4551 22.5854C15.4548 22.8686 15.4544 23.1542 15.454 23.4412L15.4525 24.3052C15.4448 28.2011 15.4276 32.1351 15.4224 33.2693L15.4215 33.4741C15.4214 33.5002 15.4213 33.5222 15.4212 33.5398L15.4209 33.5934H21.444V23.4738C21.444 22.9322 21.4831 22.3911 21.6422 22.004C22.0776 20.9219 23.0687 19.8012 24.7326 19.8012C26.912 19.8012 27.7839 21.4629 27.7839 23.899V33.5934H33.8065V23.203C33.8065 17.637 30.835 15.047 26.8723 15.047ZM9.11636 6.73659C7.05602 6.73659 5.70892 8.08949 5.70892 9.86761C5.70892 11.6066 7.01596 12.9981 9.03726 12.9981H9.07641C11.1769 12.9981 12.4842 11.6066 12.4842 9.86761C12.4451 8.08949 11.1769 6.73659 9.11636 6.73659Z" fill="#2A9DFC"/>
</svg>
