<svg width="180" height="18" viewBox="0 0 180 18" fill="none" xmlns="http://www.w3.org/2000/svg">
<path opacity="0.7" d="M0 9C0 6.61305 0.948159 4.32381 2.63599 2.63599C4.32382 0.948159 6.61305 0 9 0H171C173.387 0 175.676 0.948159 177.364 2.63599C179.052 4.32381 180 6.61305 180 9C180 11.3869 179.052 13.6762 177.364 15.364C175.676 17.0518 173.387 18 171 18H9C7.81811 18 6.64778 17.7672 5.55585 17.3149C4.46392 16.8626 3.47171 16.1997 2.63599 15.364C1.80026 14.5283 1.13735 13.536 0.685059 12.4441C0.232766 11.3522 0 10.1819 0 9Z" fill="#E8F5FF"/>
</svg>
