<svg width="90" height="70" viewBox="0 0 90 70" fill="none" xmlns="http://www.w3.org/2000/svg">
<mask id="mask0_1_26" style="mask-type:luminance" maskUnits="userSpaceOnUse" x="0" y="0" width="90" height="70">
<path d="M90 0H0V70H90V0Z" fill="white"/>
</mask>
<g mask="url(#mask0_1_26)">
<path d="M43.258 0L21.8027 70H0L11.2079 33.4446C11.2159 33.4328 11.2195 33.4186 11.2181 33.4044L21.4553 0H43.258Z" fill="url(#paint0_linear_1_26)"/>
<path d="M68.2893 0L46.834 70H25.0312L36.0143 34.1662L46.4866 0H68.2893Z" fill="url(#paint1_linear_1_26)"/>
<path d="M89.9998 70H68.2073L64.3351 57.3793V57.3691L59.053 40.1368L69.9544 4.58084L89.9998 70Z" fill="url(#paint2_linear_1_26)"/>
<g style="mix-blend-mode:screen" opacity="0.4">
<path d="M40.4893 2.05884L2.76874 67.9412L22.9674 2.05884H40.4893Z" fill="white"/>
</g>
<g style="mix-blend-mode:screen" opacity="0.4">
<path d="M65.5205 2.05884L27.8 67.9412L47.9986 2.05884H65.5205Z" fill="white"/>
</g>
<g style="mix-blend-mode:multiply" opacity="0.3">
<path d="M69.9545 4.58084L64.3352 57.3743L59.0511 40.1368L69.9545 4.58084Z" fill="black"/>
</g>
<g style="mix-blend-mode:multiply" opacity="0.3">
<path d="M68.2893 0L46.834 70H25.0312C28.6684 69.7838 32.2954 69.6912 35.9326 69.5265L41.3782 69.3618L46.2516 69.2475C47.8659 63.5549 49.5312 57.8728 51.2476 52.2015L53.904 43.4515L56.6217 34.7118C58.4709 28.8956 60.3406 23.0897 62.2716 17.2941C63.2524 14.4118 64.2128 11.5088 65.2242 8.63677C66.2357 5.76471 67.2267 2.86074 68.2893 0Z" fill="black"/>
</g>
<g style="mix-blend-mode:multiply" opacity="0.3">
<path d="M43.258 0L21.8027 70H0C3.63719 69.7838 7.26416 69.6912 10.9014 69.5265L16.3469 69.3618L21.2203 69.2475C22.8346 63.5549 24.4999 57.8728 26.2164 52.2015L28.8727 43.4515L31.5904 34.7118C33.4397 28.8956 35.3093 23.0897 37.2403 17.2941C38.2211 14.4118 39.1815 11.5088 40.193 8.63677C41.2045 5.76471 42.1955 2.86074 43.258 0Z" fill="black"/>
</g>
<g style="mix-blend-mode:multiply" opacity="0.3">
<path d="M37.292 0C34.656 0.276912 32.0201 0.452941 29.3739 0.586765C28.056 0.658824 26.738 0.730882 25.42 0.772059C24.3268 0.813235 23.2336 0.854411 22.1404 0.874999C21.8033 2.07941 21.4661 3.27456 21.1187 4.47794L19.8621 8.66868C19.4534 10.0574 18.9936 11.4481 18.5645 12.8378C18.1354 14.2275 17.6859 15.6172 17.2261 16.9966C16.7664 18.376 16.3168 19.776 15.8264 21.1451C15.336 22.5143 14.8763 23.904 14.3756 25.2731C13.3846 28.0113 12.3527 30.7187 11.2186 33.4054L21.4559 0.00102885L37.292 0Z" fill="black"/>
</g>
<g style="mix-blend-mode:multiply" opacity="0.3">
<path d="M62.67 0C59.9727 0.276912 57.2755 0.452941 54.5782 0.586765C53.2296 0.667744 51.881 0.72951 50.5324 0.772059C49.4085 0.813235 48.2949 0.854411 47.1711 0.884264L46.1187 4.56029L44.8416 8.84265L43.5134 13.1034C43.0741 14.5353 42.6144 15.9446 42.1444 17.3549C41.6744 18.7651 41.2146 20.1857 40.714 21.596C40.2134 23.0063 39.7536 24.4176 39.2326 25.8074C38.2313 28.6176 37.1688 31.4074 36.0143 34.1662L46.4865 0H62.67Z" fill="black"/>
</g>
<g style="mix-blend-mode:multiply" opacity="0.3">
<path d="M79.0985 69.5151C82.3781 69.4028 85.6475 69.3093 88.9271 69.2383C88.1404 66.8603 87.3741 64.4823 86.6078 62.0941C85.7292 59.3867 84.871 56.6687 84.0332 53.9402C82.327 48.5059 80.6821 43.0397 79.0474 37.5838L76.6464 29.368L74.317 21.1327C73.5609 18.3842 72.7947 15.6368 72.0897 12.878C71.3643 10.1088 70.6185 7.35922 69.9544 4.58084L89.9998 70H68.2073C71.8343 69.7673 75.4715 69.6706 79.0985 69.5151Z" fill="black"/>
</g>
</g>
<defs>
<linearGradient id="paint0_linear_1_26" x1="21.629" y1="0.77" x2="21.629" y2="70.91" gradientUnits="userSpaceOnUse">
<stop stop-color="#00F3FF"/>
<stop offset="0.238" stop-color="#00EFFC"/>
<stop offset="0.44" stop-color="#00E5F4"/>
<stop offset="0.629" stop-color="#00D3E7"/>
<stop offset="0.81" stop-color="#00BAD4"/>
<stop offset="0.983" stop-color="#009BBC"/>
<stop offset="1" stop-color="#0098BA"/>
</linearGradient>
<linearGradient id="paint1_linear_1_26" x1="46.6603" y1="0.77" x2="46.6603" y2="70.91" gradientUnits="userSpaceOnUse">
<stop stop-color="#00F3FF"/>
<stop offset="0.238" stop-color="#00EFFC"/>
<stop offset="0.44" stop-color="#00E5F4"/>
<stop offset="0.629" stop-color="#00D3E7"/>
<stop offset="0.81" stop-color="#00BAD4"/>
<stop offset="0.983" stop-color="#009BBC"/>
<stop offset="1" stop-color="#0098BA"/>
</linearGradient>
<linearGradient id="paint2_linear_1_26" x1="81.8608" y1="70.8504" x2="49.0385" y2="51.5597" gradientUnits="userSpaceOnUse">
<stop stop-color="#3E6896"/>
<stop offset="0.247" stop-color="#355881"/>
<stop offset="0.75" stop-color="#1F324E"/>
<stop offset="1" stop-color="#131D32"/>
</linearGradient>
</defs>
</svg>
