<svg width="72" height="72" viewBox="0 0 72 72" fill="none" xmlns="http://www.w3.org/2000/svg">
<path d="M36.8044 70.6366C55.5453 70.6366 70.7378 55.4661 70.7378 36.7524C70.7378 18.0386 55.5453 2.86816 36.8044 2.86816C18.0636 2.86816 2.87109 18.0386 2.87109 36.7524C2.87109 55.4661 18.0636 70.6366 36.8044 70.6366Z" fill="#E7F1FE"/>
<path d="M51.0449 16.0708H22.6039C21.5243 16.0695 20.455 16.2809 19.4573 16.6928C18.4595 17.1048 17.553 17.7093 16.7895 18.4716C16.0261 19.2339 15.4207 20.1392 15.0082 21.1355C14.5956 22.1318 14.3839 23.1995 14.3853 24.2776V44.8494C14.3865 46.8387 15.1095 48.7602 16.4204 50.2581C17.7314 51.756 19.5414 52.7288 21.5155 52.9964V58.3711C21.5144 58.6197 21.5818 58.8638 21.7102 59.0768C21.8387 59.2897 22.0233 59.4634 22.2438 59.5787C22.4644 59.6939 22.7124 59.7464 22.9609 59.7304C23.2093 59.7145 23.4486 59.6305 23.6525 59.488L32.9198 53.0662H51.0449C52.1254 53.0675 53.1955 52.8558 54.1939 52.4432C55.1923 52.0306 56.0992 51.4252 56.8628 50.6618C57.6264 49.8985 58.2315 48.992 58.6435 47.9946C59.0555 46.9971 59.2662 45.9284 59.2636 44.8494V24.2676C59.2636 23.1903 59.0509 22.1237 58.6378 21.1285C58.2246 20.1334 57.6191 19.2294 56.8557 18.4681C56.0924 17.7068 55.1863 17.1032 54.1892 16.6919C53.1922 16.2805 52.1237 16.0695 51.0449 16.0708Z" fill="white"/>
<path d="M60.2623 24.2678C60.2649 23.0584 60.0283 21.8604 59.5661 20.7425C59.1038 19.6246 58.4249 18.6089 57.5685 17.7537C56.7121 16.8986 55.6949 16.2206 54.5754 15.759C53.4559 15.2974 52.2562 15.0612 51.045 15.0638V17.0582C51.9935 17.0569 52.9329 17.2424 53.8095 17.6043C54.6861 17.9661 55.4826 18.4971 56.1533 19.1669C56.824 19.8366 57.3558 20.632 57.7181 21.5073C58.0805 22.3826 58.2664 23.3207 58.265 24.2678H60.2623ZM60.2623 44.8396V24.2678H58.265V44.8396H60.2623ZM51.045 54.0536C52.2566 54.0549 53.4566 53.8175 54.5761 53.3548C55.6957 52.8921 56.7128 52.2132 57.5691 51.3572C58.4254 50.5012 59.1041 49.4848 59.5662 48.3664C60.0284 47.248 60.2649 46.0495 60.2623 44.8396H58.265C58.2677 45.7876 58.0828 46.7269 57.721 47.6033C57.3592 48.4798 56.8276 49.2762 56.1568 49.947C55.486 50.6178 54.689 51.1497 53.8118 51.5122C52.9346 51.8747 51.9944 52.0605 51.045 52.0592V54.0536ZM32.9199 54.0536H51.045V52.0592H32.9199V54.0536ZM24.2218 60.3059L33.4891 53.874L32.3507 52.2388L23.0834 58.6606L24.2218 60.3059ZM20.517 58.3116C20.505 58.7471 20.6143 59.1775 20.8328 59.5546C21.0513 59.9318 21.3703 60.241 21.7544 60.4477C22.1386 60.6545 22.5726 60.7508 23.0083 60.7258C23.4439 60.7007 23.864 60.5553 24.2218 60.3059L23.0834 58.6606C23.0303 58.7038 22.9656 58.7305 22.8973 58.7374C22.8291 58.7442 22.7604 58.7308 22.6997 58.6989C22.6391 58.667 22.5891 58.6181 22.5561 58.5581C22.5231 58.498 22.5086 58.4296 22.5142 58.3614L20.517 58.3116ZM20.517 52.9367V58.3116H22.5142V52.9367H20.517ZM13.3867 44.7897C13.3859 47.0199 14.1951 49.1747 15.6642 50.8544C17.1333 52.5341 19.1626 53.6247 21.3758 53.9239L21.6354 51.9296C19.9014 51.6934 18.3118 50.838 17.1607 49.5217C16.0095 48.2054 15.3748 46.5174 15.374 44.7699L13.3867 44.7897ZM13.3867 24.2179V44.7897H15.384V24.2678L13.3867 24.2179ZM22.604 15.0139C21.3929 15.0113 20.1931 15.2476 19.0736 15.7092C17.9541 16.1708 16.937 16.8486 16.0805 17.7038C15.2241 18.559 14.5453 19.5747 14.083 20.6926C13.6207 21.8104 13.3841 23.0085 13.3867 24.2179H15.384C15.3827 23.2707 15.5685 22.3327 15.9309 21.4574C16.2933 20.5821 16.8251 19.7868 17.4958 19.1171C18.1665 18.4473 18.963 17.9163 19.8395 17.5545C20.7161 17.1926 21.6555 17.007 22.604 17.0083V15.0139ZM51.045 15.0139H22.604V17.0083H51.045V15.0139ZM32.9199 53.0065V52.0093H32.6103L32.3507 52.1889L32.9199 53.0065ZM23.6527 59.4284L24.2218 60.256L23.6527 59.4284ZM21.5156 52.9367H22.5142V52.0592L21.6454 51.9495L21.5156 52.9367Z" fill="#4D6080"/>
</svg>
