<svg width="464" height="250" viewBox="0 0 464 250" fill="none" xmlns="http://www.w3.org/2000/svg">
<g clip-path="url(#clip0)">
<g opacity="0.1">
<path opacity="0.1" d="M241.953 250C364.202 250 463.305 241.257 463.305 230.472C463.305 219.687 364.202 210.944 241.953 210.944C119.704 210.944 20.6011 219.687 20.6011 230.472C20.6011 241.257 119.704 250 241.953 250Z" fill="#1E9BFF"/>
</g>
<g opacity="0.1">
<path opacity="0.1" d="M405.15 231.974H288.09C286.91 231.974 285.944 231.009 285.944 229.828C285.944 228.648 286.91 227.682 288.09 227.682H405.15C406.331 227.682 407.296 228.648 407.296 229.828C407.296 231.009 406.331 231.974 405.15 231.974Z" fill="#1E9BFF"/>
</g>
<path d="M438.09 157.94H256.438C252.683 158.047 249.464 155.043 249.356 151.288C249.356 150.858 249.356 150.429 249.464 150C255.258 103.755 258.477 57.2961 259.228 10.6223C259.335 6.22315 262.876 2.68237 267.275 2.68237H448.927C453.219 2.68237 456.76 6.11585 456.867 10.515V10.6223C456.223 57.1888 452.897 103.755 447.103 149.893C446.46 154.399 442.704 157.833 438.09 157.94Z" fill="white"/>
<path d="M256.223 159.335C254.185 159.335 252.146 158.584 250.644 157.082C249.035 155.579 248.176 153.541 248.069 151.395C248.069 150.858 248.069 150.322 248.176 149.785C253.97 103.863 257.189 56.9743 257.94 10.6224C258.047 5.47215 262.232 1.39489 267.382 1.2876H449.035C451.502 1.2876 453.756 2.25326 455.58 3.97C457.296 5.68674 458.262 8.04725 458.262 10.4078V10.6224C457.618 57.0816 454.292 103.97 448.498 150.107C447.747 155.258 443.455 159.12 438.198 159.228H256.438C256.331 159.335 256.331 159.335 256.223 159.335ZM448.927 3.97H267.275C263.627 3.97 260.623 6.97429 260.515 10.6224C259.871 57.0816 256.545 103.97 250.751 150.107C250.644 150.537 250.644 150.858 250.644 151.18C250.644 152.682 251.288 154.077 252.361 155.043C253.434 156.009 254.829 156.652 256.331 156.545H437.983C441.846 156.438 445.065 153.541 445.708 149.678C451.502 103.755 454.721 56.867 455.472 10.5151C455.472 8.79833 454.829 7.08159 453.541 5.90133C452.361 4.61378 450.751 3.97 448.927 3.97Z" fill="#7795C7"/>
<path d="M273.82 27.7898H441.202C442.918 27.7898 444.421 26.2877 444.421 24.5709C444.528 22.1031 444.635 19.6353 444.742 17.2748C444.85 15.5581 443.455 14.1632 441.738 14.0559H274.356C272.532 14.0559 271.137 15.4508 271.137 17.2748C271.03 19.7426 270.923 22.2104 270.815 24.5709C270.708 26.2877 272.103 27.6825 273.82 27.7898Z" fill="#D8E9FF"/>
<path d="M401.288 146.03L400.429 145.923C404.828 110.086 407.725 73.8198 409.013 37.9829H409.871C408.584 73.8198 405.687 110.193 401.288 146.03Z" fill="#D8E9FF"/>
<path d="M366.524 146.03L365.666 145.923C370.065 110.086 372.962 73.8198 374.249 37.9829H375.108C373.82 73.8198 370.923 110.193 366.524 146.03Z" fill="#D8E9FF"/>
<path d="M331.867 145.923L331.009 145.815C335.408 109.978 338.305 73.7124 339.592 37.8755H340.451C339.056 73.8197 336.159 110.193 331.867 145.923Z" fill="#D8E9FF"/>
<path d="M297.103 146.03L296.245 145.923C300.644 110.086 303.541 73.8198 304.828 37.9829H305.687C304.399 73.8198 301.502 110.193 297.103 146.03Z" fill="#D8E9FF"/>
<path d="M442.919 64.4849H269.206V65.3432H442.919V64.4849Z" fill="#D8E9FF"/>
<path d="M441.095 91.5237H267.382V92.382H441.095V91.5237Z" fill="#D8E9FF"/>
<path d="M438.627 118.562H264.914V119.421H438.627V118.562Z" fill="#D8E9FF"/>
<path d="M266.416 146.352C266.309 146.352 266.202 146.352 265.987 146.352C263.412 145.923 261.695 143.562 262.017 141.094C265.88 108.476 268.455 75.3218 269.85 42.7038C269.957 39.8068 272.425 37.4463 275.322 37.4463H439.7C442.489 37.5536 444.635 39.9141 444.528 42.7038C443.24 75.4291 440.558 108.476 436.695 141.202C436.266 144.099 433.798 146.245 430.901 146.352H266.738C266.631 146.352 266.524 146.352 266.416 146.352ZM439.592 38.412H275.215C272.854 38.412 270.816 40.3433 270.708 42.7038C269.421 75.3218 266.738 108.476 262.876 141.202C262.554 143.24 263.949 145.064 265.987 145.386C266.202 145.386 266.416 145.386 266.631 145.386H430.794C433.262 145.279 435.3 143.455 435.622 141.094C439.485 108.476 442.06 75.4291 443.455 42.7038C443.67 40.4506 441.846 38.5192 439.592 38.412Z" fill="#D8E9FF"/>
<path d="M385.837 58.369C385.408 58.369 384.978 58.1544 384.764 57.8325C384.227 57.1888 384.227 56.2231 384.871 55.6866C388.734 52.1459 392.597 48.6051 396.352 45.1716C396.996 44.6351 397.961 44.6351 398.498 45.2789C399.034 45.9227 399.034 46.8883 398.391 47.4248C394.635 50.9656 390.772 54.5064 386.91 57.9398C386.481 58.2617 386.159 58.369 385.837 58.369Z" fill="#FA8A8C"/>
<path d="M396.781 58.3692C396.352 58.3692 396.03 58.2619 395.708 57.94C392.275 54.3992 388.734 50.8585 385.193 47.425C384.657 46.8885 384.657 45.9228 385.193 45.2791C385.73 44.7426 386.696 44.7426 387.339 45.2791C390.88 48.8198 394.314 52.3606 397.854 55.7941C398.391 56.3306 398.391 57.2962 397.854 57.94C397.532 58.2619 397.103 58.3692 396.781 58.3692Z" fill="#FA8A8C"/>
<path d="M414.271 138.949C413.842 138.949 413.412 138.734 413.091 138.412C412.554 137.768 412.661 136.803 413.198 136.266L425.322 125.751C425.966 125.215 426.932 125.322 427.468 125.858C428.005 126.502 427.897 127.468 427.361 128.004L415.236 138.519C414.915 138.841 414.593 138.949 414.271 138.949Z" fill="#FA8A8C"/>
<path d="M425.215 138.948C424.785 138.948 424.356 138.734 424.142 138.519C420.923 134.979 417.597 131.438 414.378 128.004C413.841 127.361 413.841 126.395 414.485 125.858C415.129 125.322 416.094 125.322 416.631 125.966C419.957 129.506 423.176 133.047 426.502 136.481C427.039 137.124 427.039 138.09 426.395 138.627C425.966 138.841 425.644 138.948 425.215 138.948Z" fill="#FA8A8C"/>
<path d="M311.91 139.378C311.481 139.378 311.051 139.27 310.622 138.949L310.408 138.841L305.687 134.657C305.043 134.12 305.043 133.155 305.579 132.511C306.116 131.867 307.081 131.867 307.725 132.404L311.91 136.159L321.781 126.18C322.318 125.537 323.283 125.537 323.927 126.18C324.463 126.717 324.571 127.682 323.927 128.326L313.627 138.734C313.197 139.163 312.554 139.378 311.91 139.378Z" fill="#64D2D4"/>
<path d="M385.515 111.373C384.979 111.373 384.549 111.266 384.12 110.944L384.013 110.837L379.185 106.652C378.541 106.116 378.541 105.15 379.077 104.506C379.614 103.863 380.58 103.863 381.223 104.399L385.515 108.154C388.734 104.828 391.953 101.502 395.172 98.1759C395.708 97.5322 396.674 97.5322 397.318 98.1759C397.962 98.7124 397.962 99.6781 397.318 100.322C393.992 103.755 390.665 107.296 387.232 110.73C386.803 111.159 386.159 111.373 385.515 111.373ZM385.086 108.584C385.086 108.584 384.979 108.584 385.086 108.584C384.979 108.584 385.086 108.584 385.086 108.584Z" fill="#64D2D4"/>
<path d="M354.292 58.0472C353.863 58.0472 353.326 57.9399 352.897 57.6181L347.747 53.3262C347.103 52.7897 346.996 51.8241 347.532 51.1803C348.069 50.5365 349.035 50.4292 349.678 50.9657L354.185 54.7211C357.296 51.3949 360.301 48.0687 363.305 44.7425C363.842 44.0987 364.807 44.0987 365.451 44.6352C366.095 45.1717 366.095 46.1374 365.558 46.7811C362.339 50.3219 359.228 53.7554 356.009 57.1889C355.58 57.7254 354.936 58.0472 354.292 58.0472ZM353.863 55.2575C353.863 55.2575 353.756 55.2575 353.863 55.2575C353.756 55.2575 353.863 55.2575 353.863 55.2575Z" fill="#64D2D4"/>
<path d="M280.258 40.6652C294.85 40.3434 313.734 54.5065 293.67 103.326C257.618 190.88 185.193 148.927 185.193 148.927C185.193 148.927 187.447 86.1588 190.451 76.3949C242.919 67.2747 258.262 41.0944 280.258 40.6652Z" fill="white"/>
<path d="M255.687 62.9827L252.361 59.6566L255.58 56.545C258.048 54.0772 260.837 51.3948 263.627 48.8196L265.344 47.2102L268.455 50.6437L266.739 52.2531C263.949 54.7209 261.266 57.5106 258.799 59.8711L255.687 62.9827Z" fill="#4D6080"/>
<path d="M306.546 87.6609L236.803 77.0386C227.683 75.8583 230.473 54.0772 239.593 55.2575L309.335 65.8798L306.546 87.6609Z" fill="#64D2D4"/>
<path d="M306.545 88.8411C306.438 88.8411 306.438 88.8411 306.331 88.8411L236.588 78.2188C234.12 77.8969 232.189 76.2875 231.009 73.6051C228.97 68.7767 229.936 61.266 233.155 57.1888C234.871 54.9355 237.232 53.7553 239.7 54.0772L309.442 64.6995C310.086 64.8068 310.515 65.4506 310.515 66.0943L307.726 87.8755C307.726 88.1973 307.511 88.5192 307.296 88.7338C306.974 88.8411 306.76 88.8411 306.545 88.8411ZM238.841 56.4377C237.447 56.4377 236.159 57.1888 235.086 58.5836C232.404 62.0171 231.545 68.5621 233.262 72.6394C234.013 74.5707 235.301 75.6437 236.91 75.8583L305.472 86.266L307.94 66.9527L239.378 56.545C239.163 56.4377 239.056 56.4377 238.841 56.4377Z" fill="#64D2D4"/>
<path d="M322.425 81.7598L319.206 81.3306L320.064 74.8928L323.283 75.322C324.464 75.5366 325.215 76.5023 325.107 77.6825L324.785 79.9357C324.678 81.116 323.605 81.9743 322.425 81.7598Z" fill="#64D2D4"/>
<path d="M322.747 83.0473C322.639 83.0473 322.532 83.0473 322.318 83.0473L317.918 82.5108L319.099 73.6052L323.498 74.1417C325.322 74.3563 326.609 76.073 326.395 77.8971L326.073 80.1503C325.751 81.867 324.356 83.0473 322.747 83.0473ZM322.64 80.5795C323.176 80.5795 323.605 80.2576 323.605 79.8284L323.927 77.5752C323.927 77.146 323.605 76.6095 323.176 76.6095L321.137 76.3949L320.601 80.3649L322.64 80.5795Z" fill="#64D2D4"/>
<path d="M306.545 87.661L318.026 81.7597L318.992 74.3563L309.335 65.8799L306.545 87.661Z" fill="white"/>
<path d="M306.545 88.8412C306.331 88.8412 306.009 88.7339 305.794 88.6266C305.472 88.412 305.258 87.8755 305.258 87.4463L308.048 65.6652C308.155 65.236 308.369 64.8068 308.799 64.6995C309.228 64.4849 309.657 64.5922 310.086 64.9141L319.743 73.3905C320.065 73.6051 320.172 74.0343 320.172 74.4635L319.206 81.8669C319.206 82.2961 318.884 82.618 318.563 82.8326L306.975 88.7339C306.867 88.8412 306.653 88.8412 306.545 88.8412ZM310.193 68.3476L307.94 85.515L316.846 81.0085L317.597 74.8927L310.193 68.3476Z" fill="#64D2D4"/>
<path d="M271.03 56.7597C271.03 56.7597 267.382 51.6095 270.279 47.8541C276.824 39.5923 285.837 36.9099 294.957 43.8842C304.721 51.3949 303.004 66.7383 295.065 68.5623C280.472 71.9958 271.03 56.7597 271.03 56.7597Z" fill="white"/>
<path d="M290.88 70.0645C278.648 70.0645 270.708 57.94 270.279 57.2962C269.957 56.867 266.309 51.3949 269.528 47.2104C276.932 37.7683 286.588 36.2662 295.494 43.1331C301.824 47.9615 303.434 55.7941 302.146 61.2662C301.181 65.6653 298.605 68.6696 295.172 69.4207C293.777 69.8499 292.275 70.0645 290.88 70.0645ZM284.335 40.7726C279.614 40.7726 275 43.3477 271.03 48.3906C268.562 51.5022 271.781 56.116 271.781 56.2233C271.781 56.2233 274.142 59.9786 278.219 63.1975C283.477 67.4894 289.163 68.9915 294.85 67.5966C297.532 66.9529 299.571 64.4851 300.322 60.837C301.395 55.9014 300 48.9271 294.314 44.528C291.095 42.0602 287.661 40.7726 284.335 40.7726Z" fill="white"/>
<path d="M293.67 68.3477C284.013 68.3477 274.571 57.5108 274.142 56.9743L272.64 55.1503L276.181 52.0387L277.683 53.8627C280.258 56.867 288.52 64.485 294.85 63.4121C297.318 62.9829 299.249 61.588 300.108 59.4421C301.503 56.2232 300.43 51.7168 297.533 47.5322C292.168 40.0215 284.228 41.3091 279.936 42.8112C276.717 43.8842 272.425 46.9957 266.846 52.0387L265.129 53.6481L262.018 50.2146L263.734 48.6052C269.957 42.9185 274.679 39.6996 278.541 38.4121C287.876 35.1932 296.245 37.5537 301.503 44.8498C305.473 50.4292 306.653 56.4378 304.614 61.2661C303.112 64.9142 299.893 67.382 295.816 68.1331C294.958 68.3477 294.314 68.3477 293.67 68.3477Z" fill="#4D6080"/>
<path d="M220.494 155.15C210.515 155.15 203.756 153.111 203.219 152.897L200.966 152.146L202.361 147.639L204.614 148.39C204.936 148.498 233.369 156.974 260.622 137.339C273.498 128.004 279.828 112.983 279.828 112.875L280.687 110.729L285.086 112.554L284.228 114.699C283.906 115.343 277.361 131.116 263.412 141.202C247.747 152.468 231.974 155.15 220.494 155.15Z" fill="#4D6080"/>
<path d="M240.88 112.876C240.88 112.876 276.288 71.8884 263.305 65.0215C260.086 63.3047 249.786 67.7039 242.812 71.03C237.876 73.3906 232.618 75 227.146 75.6438L219.958 76.5022" fill="white"/>
<path d="M241.631 113.519L240.236 112.339C240.558 112.017 267.382 80.6867 265.129 68.9914C264.807 67.4893 264.163 66.5236 262.876 65.8798C260.73 64.6995 253.434 66.9528 243.241 71.8884C238.198 74.3562 232.833 75.8583 227.254 76.5021L220.065 77.3605L219.85 75.5365L227.039 74.6781C232.404 74.0343 237.554 72.5322 242.382 70.1717C253.756 64.6995 260.945 62.6609 263.734 64.1631C265.451 65.1287 266.524 66.6309 266.953 68.5622C269.314 81.1159 242.704 112.124 241.631 113.519Z" fill="white"/>
<path d="M233.798 114.163L230.472 110.837L232.189 109.227C240.343 101.073 261.373 77.7896 259.979 68.0257C259.764 66.7381 259.227 65.8798 258.047 65.236C254.936 63.5192 244.742 68.3476 237.339 71.9956C235.193 73.0686 233.047 74.0343 230.901 74.9999C219.742 79.9356 199.785 83.369 198.927 83.4763L196.566 83.9055L195.815 79.2918L198.176 78.8626C198.391 78.8626 218.455 75.4291 229.077 70.7081C231.116 69.8497 233.154 68.7768 235.408 67.7038C245.601 62.7682 255.257 58.1544 260.408 61.1587C262.768 62.4463 264.27 64.6995 264.7 67.3819C266.631 81.2231 238.734 109.335 235.515 112.554L233.798 114.163Z" fill="#4D6080"/>
<path d="M280.579 114.056C277.253 114.056 274.249 112.554 272.103 109.657C268.133 104.185 269.635 93.8842 273.605 88.3048L277.361 91.0945C274.142 95.4936 273.391 103.541 275.858 106.867C277.361 108.906 279.614 109.764 282.189 109.12C287.554 107.725 293.67 100.537 295.386 87.3391L300 87.9829C297.854 104.399 289.7 112.125 283.369 113.734C282.403 113.841 281.438 114.056 280.579 114.056Z" fill="#4D6080"/>
<g opacity="0.1">
<path opacity="0.1" d="M212.125 231.974H76.1806C75.0003 231.974 74.0347 231.009 74.0347 229.828C74.0347 228.648 75.0003 227.682 76.1806 227.682H212.125C213.305 227.682 214.271 228.648 214.271 229.828C214.271 231.009 213.305 231.974 212.125 231.974Z" fill="#1E9BFF"/>
</g>
<path d="M195.815 75.8584C197.854 68.8841 199.034 61.6953 199.356 54.5065C199.785 46.1374 198.712 38.9485 196.352 32.9399C187.768 6.65239 148.605 7.61805 148.605 7.61805L154.292 15.558C135.086 21.2447 121.245 41.5236 118.133 56.6524C118.026 57.0816 44.3132 125.751 16.3089 153.755C4.50637 165.236 -7.1764e-05 175.322 4.07718 180.579C5.36474 182.082 7.08147 183.047 9.1201 183.369C13.7338 184.12 20.2789 182.511 27.575 178.863C28.1115 178.648 28.648 178.541 29.2918 178.648C29.721 178.755 30.1501 178.863 30.472 179.185C31.2231 179.828 31.6523 180.901 31.4377 181.867C31.2231 182.94 31.1158 183.906 31.1158 184.979C31.2231 187.661 32.618 190.236 34.8712 191.738C36.1587 192.597 37.5536 193.24 39.0557 193.455C44.8497 194.421 53.2188 191.309 64.0557 184.227C64.9141 183.584 66.0944 183.584 66.9527 184.227C67.8111 184.871 68.2403 185.944 68.0257 187.017C67.5965 188.841 67.5965 190.773 68.0257 192.704C68.8841 195.815 71.3519 198.283 74.5708 198.927C74.8926 199.034 75.2145 199.034 75.6437 199.142C79.3991 199.785 84.0128 198.927 88.8412 196.674C90.3433 196.03 91.7382 195.279 93.133 194.421C93.9914 193.884 95.0643 193.884 95.9227 194.421C102.79 198.605 118.669 204.399 134.657 203.326C174.142 200.751 193.026 165.021 196.03 147.318C199.463 126.824 204.399 101.609 195.815 75.8584Z" fill="white"/>
<path d="M130.687 205.687C114.485 205.687 100.215 199.678 94.6353 196.245C93.1332 197.103 91.6311 197.961 90.0216 198.713C84.6568 201.18 79.5066 202.146 75.2147 201.395C74.7856 201.288 74.3564 201.288 74.0345 201.18C69.8499 200.322 66.6311 197.21 65.5581 193.026C65.0216 190.773 65.0216 188.305 65.5581 186.159C53.9701 193.777 45.1718 196.996 38.6268 195.816C36.8027 195.494 34.9787 194.743 33.3693 193.67C30.4723 191.738 28.6482 188.412 28.4336 184.871C28.4336 183.584 28.5409 182.296 28.8628 181.009H28.7555C20.9229 184.871 13.8414 186.588 8.79844 185.73C6.22333 185.408 3.86282 184.12 2.14608 182.082C-2.89684 175.537 1.6096 164.485 14.4851 151.717C33.5838 132.618 73.7126 94.9572 97.6396 72.425C106.653 63.9486 113.949 57.0816 115.88 55.2576C119.421 39.9143 132.296 21.1374 150.322 14.1632L143.777 5.15031L148.713 5.04301C150.429 5.04301 189.807 4.39923 199.034 32.1889C201.502 38.5194 202.575 46.1374 202.146 54.7211C201.717 61.91 200.644 68.9915 198.713 75.8585C206.76 100.751 202.575 125 199.249 144.421L198.713 147.318C195.708 165.129 176.18 202.897 134.979 205.579C133.477 205.687 132.082 205.687 130.687 205.687ZM94.528 191.095C95.4937 191.095 96.3521 191.309 97.2104 191.846C103.756 195.816 119.099 201.395 134.442 200.322C172.532 197.854 190.665 162.983 193.348 146.459L193.884 143.455C197.103 124.356 201.18 100.537 193.24 76.6095L193.026 75.8585L193.24 75.1074C195.172 68.3477 196.352 61.3735 196.674 54.2919C197.103 46.4593 196.137 39.4851 193.884 33.7984V33.6911C187.768 15.0216 164.378 11.1589 153.863 10.4078L158.584 16.9529L155.043 18.0258C137.661 23.1761 123.927 41.9529 120.708 57.1889C120.494 58.1546 120.494 58.1546 101.18 76.3949C77.2534 98.9271 37.2319 136.588 18.1332 155.579C9.65681 164.056 2.68256 174.571 6.11603 179.077C6.86711 180.043 8.04736 180.687 9.33492 180.794H9.44221C13.4122 181.438 19.528 179.936 26.2877 176.502C27.2534 175.966 28.4336 175.858 29.6139 176.073C30.4723 176.18 31.2233 176.61 31.9744 177.146C33.5838 178.326 34.2276 180.472 33.7984 182.404C33.5838 183.262 33.4765 184.12 33.5838 184.871C33.6911 186.695 34.6568 188.519 36.159 189.485L36.2662 189.592C37.1246 190.236 38.1976 190.665 39.2705 190.88C42.8113 191.524 49.6783 190.451 62.4465 181.974C64.1632 180.794 66.5238 180.794 68.2405 181.974C70.0645 183.262 70.8156 185.301 70.3864 187.446C70.0645 188.949 70.0645 190.451 70.3864 191.953C70.9229 194.099 72.7469 195.816 75.0002 196.245H75.1074C75.322 196.352 75.6439 196.352 75.9658 196.459C79.1847 196.996 83.2619 196.245 87.6611 194.206C89.0559 193.562 90.3435 192.811 91.7383 192.06C92.704 191.416 93.5624 191.095 94.528 191.095Z" fill="white"/>
<path d="M128.863 200.751C117.704 200.751 106.76 197.747 97.3179 191.631C96.1376 190.88 95.8157 189.27 96.5668 188.09C97.3179 186.91 98.9273 186.588 100.108 187.339C118.348 199.249 142.919 198.283 162.661 185.086C192.06 165.451 204.185 125 195.279 76.9313L195.172 76.5022L195.279 76.073C201.073 44.6352 199.035 29.5064 187.232 18.3476C180.365 11.6953 168.348 8.3691 161.481 6.86695L164.7 12.8755L161.159 13.412C148.82 15.4506 134.228 22.3176 119.528 58.3691L119.314 58.9056L118.884 59.3348C118.241 59.9785 51.9316 123.283 22.4252 152.682C10.9445 164.163 8.1548 172.532 10.5153 175.536C12.9831 178.648 22.1033 178.004 34.7642 170.386C49.4638 161.588 77.1462 127.575 77.4681 127.253C78.3265 126.18 80.0432 125.966 81.1162 126.824C82.1891 127.682 82.4037 129.399 81.5454 130.472C80.3651 131.867 53.0046 165.665 37.4466 174.893C23.1763 183.369 11.2664 184.871 6.54536 178.755C1.71703 172.532 6.22347 161.695 18.8844 149.034C47.2106 120.815 109.442 61.2661 115.022 56.0086C129.292 21.3519 143.992 12.2318 156.867 9.12017L152.146 0L157.189 0.643777C158.155 0.751073 179.721 3.64807 190.987 14.485C205.902 28.7554 205.902 47.9614 200.644 76.3949C209.764 126.395 196.781 168.562 165.773 189.378C154.292 196.996 141.417 200.751 128.863 200.751Z" fill="#4D6080"/>
<path d="M113.52 135.515C113.52 135.515 81.2234 170.708 74.2491 175.858C67.2749 181.009 48.2835 194.528 39.1633 187.876C30.6869 181.652 36.0517 168.562 67.5968 140.451L79.5066 128.755" fill="white"/>
<path d="M45.2791 192.275C42.2748 192.275 39.6997 191.524 37.661 189.914C34.764 187.768 33.1546 184.979 33.0473 181.652C32.6181 172.425 42.704 159.12 65.8799 138.519L77.6825 126.824C78.7555 125.858 80.3649 125.858 81.3306 126.824C82.2962 127.897 82.2962 129.507 81.3306 130.472L69.3134 142.275C48.2833 161.052 37.8756 174.142 38.1975 181.331C38.3048 183.155 39.0559 184.442 40.6653 185.622C45.7082 189.378 57.4035 184.979 72.6396 173.605C78.0044 169.635 100.429 145.708 111.481 133.584C112.446 132.511 114.056 132.404 115.129 133.476C116.202 134.549 116.309 136.052 115.236 137.125C113.949 138.519 82.6181 172.532 75.6439 177.79C62.9829 187.446 52.7898 192.275 45.2791 192.275Z" fill="#4D6080"/>
<path d="M161.588 102.146C161.588 102.146 158.476 139.7 111.159 178.755C81.8669 209.657 56.7596 192.382 84.2274 165.987C92.3819 158.155 113.627 135.515 113.627 135.515" fill="white"/>
<path d="M82.1888 197.854C80.6867 197.854 79.3991 197.64 78.2189 197.425C74.0343 196.352 71.1373 193.67 70.1716 189.7C68.3476 182.725 72.7468 173.391 82.4034 164.056C90.4506 156.331 111.481 133.906 111.695 133.691C112.661 132.618 114.378 132.618 115.343 133.584C116.416 134.549 116.416 136.266 115.451 137.232C114.592 138.197 94.0987 159.979 85.9442 167.811C76.3948 177.039 74.1416 184.442 75.2146 188.305C75.751 190.343 77.2532 191.738 79.5064 192.275C85.0858 193.67 96.2446 190.558 109.227 176.931L109.442 176.717C155.472 138.734 158.906 102.253 158.906 101.931C159.013 100.537 160.3 99.4636 161.695 99.5709C163.09 99.6782 164.163 100.966 164.056 102.361C163.948 103.97 160.408 141.416 112.768 180.687C100.858 193.455 89.6995 197.854 82.1888 197.854Z" fill="#4D6080"/>
<path d="M220.279 58.2619C220.386 58.2619 220.386 58.4765 220.386 58.5838C220.386 58.6911 220.279 58.6911 220.279 58.6911L195.816 63.8413C193.777 59.2276 193.992 51.8241 198.069 48.7126C198.391 48.498 198.82 48.3907 199.249 48.6053L220.279 58.2619Z" fill="#1E9BFF"/>
<path d="M195.065 65.2361L194.635 64.2705C192.275 59.013 192.811 50.9658 197.318 47.6396C198.069 47.1031 199.035 46.9958 199.786 47.425L220.923 57.0816C221.245 57.2962 221.567 57.6181 221.674 57.94C221.781 58.3692 221.781 58.6911 221.567 59.1203C221.352 59.5494 220.923 59.8713 220.494 59.8713L195.065 65.2361ZM198.713 49.7855C195.601 52.146 195.065 58.0473 196.567 62.3391L216.738 58.0473L198.713 49.7855Z" fill="#1E9BFF"/>
<path d="M162.836 188.177L158.583 188.75L163.524 225.434L167.778 224.861L162.836 188.177Z" fill="#4D6080"/>
<path d="M184.764 227.36H157.833C156.653 227.36 155.687 226.395 155.687 225.215C155.687 224.034 156.653 223.069 157.833 223.069H184.764C185.945 223.069 186.91 224.034 186.91 225.215C186.91 226.395 185.945 227.36 184.764 227.36Z" fill="#4D6080"/>
<path d="M167.06 44.4207C167.489 40.1289 170.601 36.8027 173.927 37.1246C177.253 37.4465 179.721 41.2018 179.292 45.601C178.863 50.0001 175.966 53.219 172.532 52.8971C169.099 52.5752 166.631 48.8198 167.06 44.4207Z" fill="#4D6080"/>
<path d="M123.247 196.551L118.97 196.916L121.41 225.461L125.686 225.095L123.247 196.551Z" fill="#4D6080"/>
<path d="M142.49 227.36H115.344C114.163 227.36 113.198 226.395 113.198 225.215C113.198 224.034 114.163 223.069 115.344 223.069H142.49C143.67 223.069 144.636 224.034 144.636 225.215C144.636 226.395 143.67 227.36 142.49 227.36Z" fill="#4D6080"/>
</g>
<defs>
<clipPath id="clip0">
<rect width="463.305" height="250" fill="white"/>
</clipPath>
</defs>
</svg>
