<svg width="80" height="80" viewBox="0 0 80 80" fill="none" xmlns="http://www.w3.org/2000/svg">
<mask id="mask0_194_4419" style="mask-type:alpha" maskUnits="userSpaceOnUse" x="0" y="0" width="80" height="80">
<rect width="80" height="80" fill="#C4C4C4"/>
</mask>
<g mask="url(#mask0_194_4419)">
<path d="M66.278 64.0011C79.8003 50.493 79.8003 28.592 66.278 15.0838C52.7558 1.57571 30.8319 1.5758 17.3096 15.0839C3.78735 28.592 3.78735 50.4929 17.3096 64.001C30.8319 77.5092 52.7558 77.5092 66.278 64.0011Z" fill="#E7F1FE"/>
<path d="M49.0236 42.1224C48.125 30.8119 46.198 24.4685 39.9178 21.0474C34.9256 18.3345 26.8183 19.4416 26.8183 19.4416L29.0349 21.7954C24.7117 23.7902 20.4982 29.1065 20.608 40.5865C20.608 40.5865 16.2249 47.3587 10.6836 56.0959C14.7864 63.7949 21.6456 69.6644 29.8913 72.5321C38.1369 75.3998 47.162 75.0547 55.164 71.5655C56.3422 63.6861 54.7646 53.8119 49.0236 42.1224Z" fill="white"/>
<path d="M49.9122 41.8732C49.0535 31.0315 47.1965 24.0098 40.3472 20.2297C35.2052 17.4071 27.0379 18.4843 26.7184 18.5142L24.9612 18.7636L27.5671 21.5064C24.1824 23.5012 19.6795 28.3884 19.7493 40.2973C18.9706 41.5441 15.0467 47.5783 10.2642 55.1286C10.5837 55.7769 10.9032 56.3853 11.2626 56.9837C16.794 48.1767 21.3268 41.2648 21.4267 41.0853L21.5764 40.8758V40.5866C21.4267 28.1092 26.4289 23.97 29.4641 22.6335L30.6424 22.1048L28.8151 20.2097C31.4211 20.0701 36.2835 20.1001 39.4885 21.8854C44.92 24.8776 47.1965 30.1936 48.1251 42.2422V42.4218L48.2049 42.5714C53.5565 53.4031 55.5534 63.5167 54.1955 72.0544L56.1924 71.1966C56.3322 70.1294 56.4021 69.0622 56.442 67.9551C56.6816 59.9959 54.515 51.2487 49.9122 41.8732Z" fill="#4D6080"/>
<path d="M37.881 54.3804C37.8632 54.2535 37.819 54.1319 37.7513 54.0231C37.6836 53.9144 37.5938 53.821 37.4878 53.749C37.3818 53.6769 37.2619 53.6279 37.1358 53.6049C37.0097 53.582 36.8802 53.5857 36.7556 53.6158C36.631 53.6458 36.5141 53.7016 36.4124 53.7795C36.3106 53.8574 36.2263 53.9558 36.1649 54.0682C36.1035 54.1806 36.0664 54.3046 36.0559 54.4322C36.0453 54.5599 36.0616 54.6884 36.1038 54.8093C36.1038 54.919 37.6713 62.2598 33.5977 73.67C34.2067 73.8196 34.8157 73.9193 35.4248 74.029C39.5583 62.3395 37.9908 54.8092 37.881 54.3804Z" fill="#4D6080"/>
<path d="M33.5679 34.4924C33.386 34.492 33.2104 34.4262 33.0729 34.3073C32.9355 34.1883 32.8454 34.0239 32.8191 33.8441C32.4996 31.8493 33.568 29.9243 35.2753 29.645C35.7124 29.5789 36.1588 29.6149 36.5797 29.7498C37.0006 29.8848 37.3845 30.1151 37.7014 30.423C38.3775 31.0697 38.8199 31.9221 38.9595 32.8467C38.9912 33.0515 38.9409 33.2605 38.8194 33.4286C38.698 33.5966 38.5151 33.7101 38.3105 33.7444C38.2094 33.7614 38.1059 33.758 38.0061 33.7344C37.9064 33.7109 37.8123 33.6676 37.7295 33.6072C37.6467 33.5468 37.5768 33.4704 37.524 33.3827C37.4712 33.2949 37.4364 33.1974 37.4219 33.0961C37.3334 32.5148 37.0564 31.9786 36.6332 31.57C36.493 31.4209 36.3195 31.3071 36.1269 31.2378C35.9343 31.1684 35.728 31.1455 35.5249 31.171C34.7062 31.3206 34.177 32.4178 34.3467 33.5948C34.3653 33.6958 34.3634 33.7995 34.3411 33.8997C34.3188 34 34.2766 34.0947 34.217 34.1784C34.1574 34.2621 34.0817 34.3331 33.9942 34.387C33.9067 34.4409 33.8093 34.4768 33.7077 34.4924H33.5679Z" fill="#4D6080"/>
<path d="M55.4435 33.7044C55.5134 33.7044 55.5533 33.844 55.4435 33.8839L45.9183 38.452C45.8504 38.4887 45.771 38.4977 45.6966 38.4772C45.6222 38.4568 45.5585 38.4085 45.5189 38.3423C44.3108 36.6268 43.7717 33.8141 44.9199 32.1384C45.0126 32.0139 45.1387 31.918 45.2834 31.8616C45.4282 31.8051 45.586 31.7905 45.7387 31.8193L55.4435 33.7044Z" fill="#2A9DFC"/>
<path d="M45.5991 32.2782C45.5427 32.2727 45.4858 32.2829 45.4347 32.3075C45.3836 32.3321 45.3404 32.3703 45.3095 32.4178C44.3111 33.884 44.8104 36.4074 45.8487 38.0232L54.3055 33.9538L45.6989 32.2782H45.5991ZM45.7688 38.9508C45.6487 38.9538 45.5301 38.9249 45.4248 38.867C45.3196 38.8092 45.2315 38.7245 45.1697 38.6216C43.8818 36.7664 43.3127 33.7444 44.5607 31.9191C44.7058 31.7224 44.904 31.5711 45.1321 31.4828C45.3602 31.3944 45.6088 31.3728 45.8487 31.4204L55.5535 33.3155C55.6702 33.3396 55.7756 33.4016 55.8532 33.4918C55.9309 33.582 55.9766 33.6954 55.9829 33.8142C56.001 33.9314 55.9739 34.051 55.9072 34.1491C55.8405 34.2472 55.7391 34.3165 55.6234 34.3428L46.1283 38.9109C46.0185 38.9109 45.9185 38.9508 45.7688 38.9508Z" fill="#2A9DFC"/>
<path d="M75.9915 60.4047C75.8705 60.4021 75.7552 60.353 75.6696 60.2675C75.584 60.182 75.5348 60.0667 75.5322 59.9458C75.5856 59.4743 75.7622 59.0252 76.0444 58.6435C76.3265 58.2619 76.7043 57.9611 77.1397 57.7715C77.8486 57.3028 78.3179 56.9836 78.3179 56.3752C78.3179 55.7668 77.8886 55.3778 77.1697 54.919C76.7407 54.7194 76.3728 54.4088 76.1042 54.0195C75.8356 53.6302 75.6761 53.1763 75.642 52.7047C75.6983 52.2355 75.8749 51.7889 76.1548 51.4079C76.4347 51.027 76.8083 50.7247 77.2395 50.5304C77.9584 50.0716 78.4177 49.7425 78.4177 49.144C78.4203 49.0205 78.4706 48.9028 78.558 48.8154C78.6455 48.7281 78.7633 48.6778 78.887 48.6753C79.0097 48.6779 79.1265 48.7284 79.2124 48.816C79.2982 48.9037 79.3462 49.0214 79.3462 49.144C79.29 49.6146 79.1122 50.0624 78.8304 50.4436C78.5486 50.8248 78.1724 51.1263 77.7387 51.3184C76.9899 51.7772 76.5706 52.0963 76.5706 52.7047C76.5706 53.3131 76.99 53.7022 77.7089 54.171C78.1378 54.3692 78.5061 54.6778 78.7763 55.0651C79.0465 55.4524 79.2087 55.9046 79.2464 56.3752C79.1892 56.8454 79.0111 57.2929 78.7294 57.6739C78.4477 58.0549 78.072 58.3566 77.6389 58.5495C76.92 59.0183 76.4608 59.3374 76.4608 59.9458C76.4458 60.0639 76.3912 60.1735 76.306 60.2568C76.2209 60.34 76.11 60.3922 75.9915 60.4047Z" fill="#62DCB8"/>
<path d="M11.7519 18.1052C11.5726 18.1078 11.4013 18.1801 11.2746 18.3067C11.1478 18.4334 11.0754 18.6044 11.0729 18.7835V20.4291C11.0729 20.609 11.1444 20.7815 11.2718 20.9087C11.3991 21.0359 11.5718 21.1074 11.7519 21.1074H13.3993C13.5794 21.1074 13.7521 21.0359 13.8794 20.9087C14.0067 20.7815 14.0782 20.609 14.0782 20.4291V18.7835C14.0756 18.6044 14.0032 18.4334 13.8765 18.3067C13.7497 18.1801 13.5786 18.1078 13.3993 18.1052H11.7519ZM13.3993 21.9951H11.7519C11.5456 21.9964 11.3412 21.9568 11.1504 21.8786C10.9596 21.8004 10.7863 21.685 10.6404 21.5394C10.4946 21.3937 10.3792 21.2205 10.3009 21.03C10.2226 20.8394 10.183 20.6351 10.1844 20.4291V18.7835C10.1895 18.3698 10.3564 17.9744 10.6492 17.6819C10.9421 17.3893 11.3377 17.2227 11.7519 17.2175H13.3993C13.8134 17.2227 14.2091 17.3893 14.502 17.6819C14.7948 17.9744 14.9616 18.3698 14.9668 18.7835V20.4291C14.9764 20.6392 14.9428 20.849 14.868 21.0455C14.7931 21.2421 14.6786 21.4211 14.5317 21.5716C14.3847 21.7222 14.2084 21.841 14.0136 21.9207C13.8188 22.0004 13.6098 22.0392 13.3993 22.0349V21.9951Z" fill="#2A9DFC"/>
<path d="M65.8273 63.6663C65.6473 63.6663 65.4746 63.7377 65.3472 63.8648C65.2199 63.992 65.1483 64.1646 65.1483 64.3444V65.9802C65.1483 66.0692 65.1659 66.1575 65.2 66.2398C65.2341 66.322 65.2842 66.3968 65.3472 66.4598C65.4103 66.5227 65.4851 66.5727 65.5675 66.6068C65.6499 66.6409 65.7382 66.6585 65.8273 66.6585H67.4748C67.5643 66.6598 67.6531 66.6431 67.7361 66.6095C67.8191 66.5759 67.8945 66.5261 67.9578 66.4628C68.0211 66.3996 68.0711 66.3242 68.1048 66.2413C68.1384 66.1584 68.155 66.0696 68.1537 65.9802V64.3444C68.1537 64.1646 68.0822 63.992 67.9549 63.8648C67.8275 63.7377 67.6548 63.6663 67.4748 63.6663H65.8273ZM67.5046 67.546H65.8672C65.661 67.5474 65.4566 67.5079 65.2658 67.4296C65.075 67.3514 64.9017 67.2361 64.7559 67.0904C64.6101 66.9448 64.4946 66.7716 64.4163 66.581C64.338 66.3904 64.2984 66.1862 64.2997 65.9802V64.3444C64.297 64.1376 64.3357 63.9323 64.4134 63.7405C64.4911 63.5488 64.6063 63.3745 64.7522 63.2277C64.8982 63.081 65.0721 62.9648 65.2635 62.886C65.455 62.8071 65.6601 62.7672 65.8672 62.7686H67.5046C67.9214 62.7738 68.3198 62.9415 68.6145 63.2359C68.9092 63.5303 69.0771 63.9281 69.0823 64.3444V65.9802C69.0836 66.187 69.0436 66.3921 68.9646 66.5833C68.8857 66.7746 68.7694 66.9482 68.6225 67.094C68.4756 67.2398 68.3011 67.3548 68.1092 67.4324C67.9172 67.5101 67.7117 67.5487 67.5046 67.546Z" fill="#2A9DFC"/>
<path d="M74.4938 10.5051L74.3141 11.0736C74.285 11.1659 74.2345 11.2501 74.1669 11.3194C74.0993 11.3887 74.0163 11.4411 73.9247 11.4726L73.3555 11.6422C73.2304 11.6929 73.1233 11.7798 73.0479 11.8917C72.9725 12.0037 72.9321 12.1356 72.9321 12.2705C72.9321 12.4055 72.9725 12.5372 73.0479 12.6492C73.1233 12.7611 73.2304 12.8481 73.3555 12.8989L73.9247 13.0684C74.0163 13.0998 74.0993 13.1524 74.1669 13.2217C74.2345 13.2909 74.285 13.375 74.3141 13.4673L74.4938 14.0359C74.5424 14.1618 74.6281 14.27 74.7395 14.3463C74.8509 14.4226 74.9827 14.4634 75.1178 14.4634C75.2529 14.4634 75.3847 14.4226 75.4961 14.3463C75.6075 14.27 75.6932 14.1618 75.7418 14.0359L75.9216 13.4673C75.9527 13.3761 76.0038 13.293 76.0711 13.224C76.1385 13.1549 76.2205 13.1018 76.311 13.0684L76.8901 12.8989C77.0152 12.8481 77.1224 12.7611 77.1978 12.6492C77.2732 12.5372 77.3135 12.4055 77.3135 12.2705C77.3135 12.1356 77.2732 12.0037 77.1978 11.8917C77.1224 11.7798 77.0152 11.6929 76.8901 11.6422L76.311 11.4726C76.2212 11.438 76.1398 11.3845 76.0726 11.3156C76.0054 11.2468 75.9539 11.1641 75.9216 11.0736L75.7418 10.5051C75.6932 10.3793 75.6075 10.2711 75.4961 10.1948C75.3847 10.1185 75.2529 10.0776 75.1178 10.0776C74.9827 10.0776 74.8509 10.1185 74.7395 10.1948C74.6281 10.2711 74.5424 10.3793 74.4938 10.5051Z" fill="#62DCB8"/>
<path d="M14.8569 67.2468L14.6773 67.8253C14.6462 67.9153 14.5948 67.9972 14.5274 68.0646C14.4599 68.132 14.3781 68.1832 14.2879 68.2143L13.7187 68.3938C13.5927 68.4424 13.4844 68.528 13.408 68.6393C13.3316 68.7506 13.2908 68.8823 13.2908 69.0172C13.2908 69.1521 13.3316 69.2839 13.408 69.3951C13.4844 69.5064 13.5927 69.592 13.7187 69.6406L14.2879 69.82C14.3796 69.8483 14.4629 69.8985 14.5308 69.9663C14.5986 70.0341 14.649 70.1174 14.6773 70.209L14.8569 70.7776C14.9056 70.9035 14.9913 71.0117 15.1026 71.088C15.214 71.1643 15.3459 71.2051 15.481 71.2051C15.616 71.2051 15.7479 71.1643 15.8593 71.088C15.9706 71.0117 16.0563 70.9035 16.105 70.7776L16.2848 70.209C16.3147 70.1167 16.3668 70.0331 16.4364 69.9653C16.5059 69.8975 16.5909 69.8477 16.684 69.82L17.2532 69.6406C17.3792 69.592 17.4875 69.5064 17.5639 69.3951C17.6403 69.2839 17.6811 69.1521 17.6811 69.0172C17.6811 68.8823 17.6403 68.7506 17.5639 68.6393C17.4875 68.528 17.3792 68.4424 17.2532 68.3938L16.684 68.2143C16.5927 68.1832 16.5095 68.1322 16.4404 68.0649C16.3713 67.9976 16.3182 67.9157 16.2848 67.8253L16.105 67.2468C16.0563 67.121 15.9706 67.0128 15.8593 66.9365C15.7479 66.8602 15.616 66.8193 15.481 66.8193C15.3459 66.8193 15.214 66.8602 15.1026 66.9365C14.9913 67.0128 14.9056 67.121 14.8569 67.2468Z" fill="#2A9DFC"/>
<path d="M54.9343 18.1851C54.8116 18.1825 54.6947 18.132 54.6089 18.0443C54.523 17.9567 54.475 17.8389 54.475 17.7163C54.5023 17.2442 54.6593 16.7887 54.9288 16.3998C55.1983 16.011 55.5698 15.7038 56.0026 15.5121C56.7214 15.0134 57.1508 14.6843 57.1508 14.046C57.1508 13.4076 56.6816 13.1184 55.9727 12.6596C55.2638 12.2008 54.3652 11.6621 54.3652 10.4852C54.3916 10.0102 54.5491 9.55189 54.8206 9.16102C55.092 8.77014 55.4666 8.46204 55.9027 8.27101C56.6116 7.77231 57.041 7.45317 57.041 6.80486C57.0574 6.69355 57.1133 6.5918 57.1986 6.51826C57.2838 6.44471 57.3926 6.4043 57.5052 6.4043C57.6179 6.4043 57.7268 6.44471 57.812 6.51826C57.8972 6.5918 57.9532 6.69355 57.9696 6.80486C57.9432 7.27985 57.7856 7.73817 57.5141 8.12904C57.2427 8.51992 56.8681 8.82802 56.432 9.01905C55.7231 9.51775 55.2937 9.83689 55.2937 10.4852C55.2937 11.1335 55.7531 11.4028 56.4719 11.8716C57.1908 12.3404 58.0794 12.869 58.0794 14.046C58.0486 14.5198 57.8892 14.9761 57.6183 15.3663C57.3474 15.7564 56.9752 16.0654 56.5418 16.2602C55.8329 16.7589 55.4035 17.078 55.4035 17.7163C55.401 17.8398 55.3507 17.9576 55.2632 18.0449C55.1758 18.1323 55.0579 18.1825 54.9343 18.1851Z" fill="#2A9DFC"/>
<path d="M2.76583 55.0688C2.64309 55.0689 2.52521 55.0208 2.43749 54.935C2.34977 54.8492 2.29921 54.7325 2.2966 54.6099C2.32842 54.1364 2.48824 53.6804 2.75901 53.2905C3.02978 52.9006 3.40129 52.5914 3.83411 52.3957C4.55299 51.897 4.97235 51.5779 4.97235 50.9396C4.97235 50.3013 4.51314 50.012 3.80425 49.5432C3.09536 49.0744 2.19678 48.5458 2.19678 47.3688C2.22404 46.8967 2.38105 46.4412 2.65054 46.0523C2.92003 45.6635 3.29148 45.3563 3.7243 45.1646C4.44317 44.656 4.87253 44.3368 4.87253 43.6985C4.86978 43.637 4.87968 43.5756 4.90166 43.5182C4.92363 43.4607 4.95719 43.4084 5.00026 43.3644C5.04333 43.3204 5.09497 43.2858 5.152 43.2626C5.20903 43.2394 5.27022 43.2282 5.33177 43.2296C5.45543 43.2322 5.57339 43.2824 5.66085 43.3698C5.74831 43.4571 5.79858 43.575 5.80113 43.6985C5.76825 44.1717 5.60803 44.6272 5.33738 45.0169C5.06673 45.4067 4.69567 45.7162 4.26349 45.9127C3.5546 46.4114 3.12526 46.7305 3.12526 47.3688C3.12526 48.0072 3.58459 48.2964 4.30347 48.7652C5.02235 49.234 5.90095 49.7627 5.90095 50.9396C5.87369 51.4118 5.71668 51.8672 5.44719 52.2561C5.1777 52.645 4.80612 52.9521 4.37331 53.1438C3.65443 53.6425 3.22508 53.9616 3.22508 54.6099C3.21796 54.7293 3.16736 54.8419 3.08272 54.9265C2.99808 55.011 2.88532 55.0617 2.76583 55.0688Z" fill="#62DCB8"/>
<path d="M35.954 18.7136C35.954 18.7136 35.1652 20.2495 30.852 22.2842C26.5387 24.3189 24.8613 23.8502 24.8613 23.8502L23.2139 6.1664C23.2139 5.98686 23.3937 5.87714 23.5334 6.02675L35.954 18.7136Z" fill="#2A9DFC"/>
<path d="M33.2084 15.9009C32.6689 16.9676 32.048 17.9912 31.3513 18.9628C28.8153 22.5335 27.2777 23.0621 27.2777 23.0621C27.1045 23.1173 26.9597 23.2379 26.8739 23.398C26.7882 23.5582 26.7682 23.7453 26.8184 23.9199C26.8555 24.0614 26.9382 24.1869 27.0536 24.277C27.169 24.3671 27.3109 24.4168 27.4574 24.4186C27.5161 24.4357 27.5785 24.4357 27.6372 24.4186C27.8169 24.3487 29.634 23.7404 32.4196 19.7808C33.0826 18.8816 33.6672 17.9271 34.1669 16.9281L33.2084 15.9009Z" fill="#62DCB8"/>
<path d="M27.8867 16.689C26.9735 18.1059 25.8255 19.3573 24.4919 20.3894L24.6417 21.9253C25.3506 21.5662 26.8882 20.4591 29.0249 17.467C29.872 16.3394 30.5918 15.1218 31.1714 13.8364L30.173 12.7593C29.588 14.1643 28.8192 15.4857 27.8867 16.689Z" fill="#62DCB8"/>
<path d="M26.958 13.0485C27.5271 12.2606 27.9564 11.5523 28.3158 10.9439L27.3174 9.94653C26.8705 10.7567 26.3806 11.5426 25.8497 12.3005C25.272 13.1248 24.6416 13.911 23.9626 14.6543L24.1424 16.4396C25.1867 15.4012 26.1295 14.2658 26.958 13.0485Z" fill="#62DCB8"/>
<path d="M25.5305 8.13119L24.532 7.13379C24.4322 7.27342 24.3223 7.423 24.2125 7.59255C23.9329 8.02143 23.6434 8.38048 23.3938 8.69965L23.5734 10.6247C24.1126 10.0163 24.6818 9.30811 25.3607 8.38053C25.4206 8.27082 25.4905 8.13119 25.5305 8.13119Z" fill="#62DCB8"/>
<path d="M25.2407 24.8176C25.0246 24.8323 24.8076 24.8052 24.6017 24.7379C24.484 24.7122 24.3727 24.663 24.2744 24.5935C24.1762 24.5239 24.0929 24.4353 24.0296 24.3329C23.9663 24.2306 23.9241 24.1166 23.9058 23.9976C23.8874 23.8787 23.8931 23.7574 23.9227 23.6408C23.9508 23.5235 24.0019 23.4129 24.0729 23.3153C24.1438 23.2178 24.2333 23.1352 24.3362 23.0722C24.4392 23.0092 24.5534 22.9671 24.6726 22.9482C24.7919 22.9294 24.9137 22.9343 25.0311 22.9625C25.0311 22.9625 26.6385 23.1719 30.4525 21.4265C34.2666 19.681 35.1352 18.2847 35.1651 18.2548C35.2179 18.1479 35.2918 18.0527 35.3822 17.9749C35.4727 17.8971 35.5779 17.8382 35.6915 17.8019C35.8052 17.7656 35.9251 17.7526 36.0439 17.7635C36.1627 17.7745 36.2782 17.8093 36.3833 17.8658C36.5997 17.9804 36.762 18.1756 36.8349 18.4091C36.9078 18.6426 36.8855 18.8954 36.7727 19.1126C36.6629 19.2821 35.7044 20.9976 31.2413 23.1021C29.3847 24.0906 27.3397 24.6752 25.2407 24.8176Z" fill="#2A9DFC"/>
<path d="M56.2622 33.9838L60.7552 32.7371L60.9349 33.6247L56.2622 33.9838Z" fill="white"/>
<path d="M56.2624 34.652C56.1019 34.6466 55.9479 34.5878 55.8248 34.4847C55.7018 34.3817 55.6169 34.2405 55.5835 34.0836C55.5501 33.9134 55.5832 33.7368 55.676 33.5902C55.7689 33.4437 55.9144 33.3383 56.0827 33.2956L60.5757 32.0488C60.7579 32.0048 60.9499 32.0297 61.1148 32.1187C61.1967 32.1715 61.2672 32.2402 61.3221 32.3207C61.377 32.4012 61.4152 32.492 61.4344 32.5875L61.614 33.4752C61.6361 33.5695 61.6349 33.6678 61.6106 33.7617C61.5862 33.8555 61.5395 33.9419 61.4743 34.0137C61.4154 34.0903 61.3398 34.1525 61.2534 34.1957C61.1669 34.2389 61.0718 34.2619 60.9751 34.263L56.2924 34.6222C56.2924 34.6222 56.2923 34.652 56.2624 34.652Z" fill="white"/>
<path d="M60.8651 34.7617C60.4491 34.7663 60.0464 34.6155 59.736 34.3387C59.4256 34.0619 59.2301 33.6791 59.1878 33.2656C59.1402 32.8212 59.2712 32.3762 59.5521 32.0284C59.8329 31.6805 60.2406 31.4582 60.6855 31.4105C66.3266 30.8419 71.6683 30.3033 74.2842 29.1663C74.9484 28.906 75.49 28.4052 75.8009 27.7637C76.1118 27.1222 76.1692 26.3873 75.9616 25.7054C75.8955 25.4313 75.7747 25.1733 75.6068 24.9467C75.4389 24.7201 75.2272 24.5295 74.9842 24.3862C74.7411 24.2429 74.4717 24.15 74.1919 24.1127C73.9122 24.0755 73.6277 24.0947 73.3556 24.1694C73.0505 24.194 72.7674 24.3373 72.5669 24.5683C72.5669 24.5683 72.5668 24.6381 72.497 24.668C72.5931 24.6796 72.6904 24.6796 72.7865 24.668C73.0045 24.6187 73.2303 24.6139 73.4502 24.6539C73.6701 24.6939 73.8795 24.778 74.066 24.901C74.2526 25.024 74.4124 25.1833 74.5356 25.3696C74.6589 25.5558 74.7432 25.7651 74.7834 25.9847C74.8286 26.2022 74.8303 26.4263 74.7884 26.6445C74.7466 26.8626 74.662 27.0704 74.5395 27.2558C74.4171 27.4411 74.2591 27.6004 74.0748 27.7246C73.8905 27.8488 73.6835 27.9355 73.4655 27.9795C72.8341 28.1386 72.171 28.1223 71.5481 27.9325C70.9252 27.7426 70.366 27.3864 69.931 26.9022C69.544 26.44 69.2872 25.8831 69.1872 25.2889C69.0872 24.6946 69.1474 24.0844 69.3618 23.5211C69.6444 22.8049 70.1156 22.1783 70.7256 21.7078C71.3355 21.2372 72.0614 20.9401 72.8265 20.8481C74.1952 20.5598 75.6225 20.805 76.816 21.5338C78.0096 22.2625 78.879 23.4196 79.2464 24.7679C79.6882 26.2447 79.5638 27.8328 78.8975 29.2231C78.2312 30.6133 77.0707 31.7059 75.6421 32.2882C72.507 33.6047 67.2253 34.1433 61.0849 34.7817C61.0113 34.7975 60.9346 34.7905 60.8651 34.7617Z" fill="#62DCB8"/>
</g>
</svg>
