<svg width="40" height="40" viewBox="0 0 40 40" fill="none" xmlns="http://www.w3.org/2000/svg">
<path fill-rule="evenodd" clip-rule="evenodd" d="M40 7.74583C38.5122 8.42372 36.9268 8.87366 35.2755 9.09118C36.9742 8.03635 38.2726 6.38111 38.8824 4.38468C37.297 5.36502 35.5481 6.0593 33.6829 6.44517C32.1779 4.78248 30.0316 3.75 27.693 3.75C23.1521 3.75 19.4978 7.57747 19.4978 12.2691C19.4978 12.944 19.5524 13.5936 19.6872 14.2104C12.8709 13.8647 6.83788 10.4723 2.78623 5.30244C2.07747 6.57777 1.66284 8.03635 1.66284 9.60816C1.66284 12.5566 3.12482 15.1713 5.3056 16.685C3.98852 16.6582 2.69584 16.2619 1.59971 15.6362V15.7285C1.59971 19.8674 4.44333 23.3045 8.17073 24.0971C7.50215 24.2864 6.77475 24.3772 6.02009 24.3772C5.49498 24.3772 4.96557 24.3459 4.46772 24.2312C5.53085 27.6028 8.54519 30.0819 12.1306 30.1639C9.34003 32.4285 5.7977 33.7947 1.9627 33.7947C1.29125 33.7947 0.645624 33.7649 0 33.6785C3.63271 36.1114 7.93831 37.5 12.5811 37.5C27.67 37.5 35.9197 24.5203 35.9197 13.2688C35.9197 12.8918 35.9067 12.5283 35.8895 12.1678C37.5179 10.9684 38.8852 9.46961 40 7.74583Z" fill="#2A9DFC"/>
</svg>
