<svg width="158" height="86" viewBox="0 0 158 86" fill="none" xmlns="http://www.w3.org/2000/svg">
<path opacity="0.7" d="M-0.000244141 8.99996C0.00241261 6.61381 0.98256 4.3261 2.72497 2.63884C4.46738 0.951579 6.82974 0.00257267 9.29388 0H148.706C151.171 0 153.535 0.948174 155.278 2.63599C157.021 4.32381 158 6.61302 158 8.99996C158 11.3869 157.021 13.6761 155.278 15.3639C153.535 17.0517 151.171 17.9999 148.706 17.9999H9.34411C8.11975 18.005 6.90633 17.776 5.77351 17.3261C4.6407 16.8763 3.61071 16.2144 2.74261 15.3783C1.87452 14.5422 1.18546 13.5484 0.714783 12.4539C0.244106 11.3593 0.00106526 10.1856 -0.000244141 8.99996Z" fill="#E8F5FF"/>
<path opacity="0.7" d="M-0.000244141 42.9999C-0.000244141 40.6129 0.979044 38.3238 2.72203 36.636C4.46501 34.9482 6.82893 34 9.29388 34H148.706C151.171 34 153.535 34.9482 155.278 36.636C157.021 38.3238 158 40.6129 158 42.9999C158 45.3868 157.021 47.6761 155.278 49.3639C153.535 51.0517 151.171 51.9999 148.706 51.9999H9.34411C8.11975 52.005 6.90633 51.7761 5.77351 51.3263C4.6407 50.8764 3.61071 50.2144 2.74261 49.3783C1.87452 48.5422 1.18546 47.5484 0.714783 46.4538C0.244106 45.3593 0.00106526 44.1855 -0.000244141 42.9999Z" fill="#E8F5FF"/>
<path opacity="0.7" d="M-0.000244141 77C-0.000244141 74.613 0.979044 72.3238 2.72203 70.636C4.46501 68.9482 6.82893 68 9.29388 68H148.706C151.171 68 153.535 68.9482 155.278 70.636C157.021 72.3238 158 74.613 158 77C158 79.3869 157.021 81.6761 155.278 83.3639C153.535 85.0517 151.171 85.9999 148.706 85.9999H9.34411C8.11975 86.005 6.90633 85.776 5.77351 85.3261C4.6407 84.8763 3.61071 84.2144 2.74261 83.3783C1.87452 82.5422 1.18546 81.5484 0.714783 80.4539C0.244106 79.3593 0.00106526 78.1856 -0.000244141 77Z" fill="#E8F5FF"/>
</svg>
